<?xml version="1.0" standalone="no"?>
<!DOCTYPE svg PUBLIC "-//W3C//DTD SVG 1.1//EN" "http://www.w3.org/Graphics/SVG/1.1/DTD/svg11.dtd" >
<svg xmlns="http://www.w3.org/2000/svg" xmlns:xlink="http://www.w3.org/1999/xlink" version="1.1">
<metadata></metadata>
<defs>
<font id="tilda_sans_vfregular" horiz-adv-x="1142" >
<font-face units-per-em="2048" ascent="1638" descent="-410" />
<missing-glyph horiz-adv-x="532" />
<glyph unicode="&#xfb01;" horiz-adv-x="1101" d="M68 768h524v133h-524v-133zM221 0h148v985q0 90 10 153.5t34.5 104.5t66.5 59.5t106 18.5q61 0 102 -16.5t65.5 -48t36 -79t11.5 -108.5h147q0 78 -17.5 147.5t-59.5 123t-111.5 84t-173.5 30.5q-98 0 -168 -29.5t-114 -85t-63.5 -135.5t-19.5 -178v-1026zM801 0h147v901 h-147v-901z" />
<glyph unicode="&#xfb02;" horiz-adv-x="1101" d="M68 768h524v133h-524v-133zM221 0h148v985q0 90 10 153.5t34.5 104.5t66.5 59.5t106 18.5q61 0 103 -18.5t66.5 -59.5t35 -104.5t10.5 -153.5v-985h147v1026q0 98 -19.5 178t-63.5 135.5t-112.5 85t-166.5 29.5t-168 -29.5t-114 -85t-63.5 -135.5t-19.5 -178v-1026z" />
<glyph horiz-adv-x="0" />
<glyph horiz-adv-x="0" />
<glyph unicode="&#xd;" horiz-adv-x="1228" />
<glyph unicode=" "  horiz-adv-x="532" />
<glyph unicode="&#x09;" horiz-adv-x="532" />
<glyph unicode="&#xa0;" horiz-adv-x="532" />
<glyph unicode="!" horiz-adv-x="505" d="M139 88q0 -45 30 -76.5t83 -31.5q27 0 48.5 8t35.5 23.5t22.5 35t8.5 41.5q0 47 -30 80t-85 33t-84 -33t-29 -80zM172 471h164v963h-164v-963z" />
<glyph unicode="&#x22;" horiz-adv-x="768" d="M102 1434l21 -533h113l20 533h-154zM512 1434l21 -533h113l20 533h-154z" />
<glyph unicode="#" horiz-adv-x="1548" d="M61 406h1203l49 133h-1202zM186 0h152l508 1434h-152zM236 932h1202l49 133h-1202zM696 0h152l508 1434h-152z" />
<glyph unicode="$" horiz-adv-x="1050" d="M41 184q39 -43 86 -79.5t106.5 -64.5t130 -44t154.5 -16q94 0 177 26.5t144.5 78.5t97.5 132t36 184q0 90 -30 155t-80 111t-112.5 79.5t-129 61.5t-129 54.5t-112.5 59t-80 75.5t-30 105q0 47 17.5 84t51.5 64.5t83 42t113 14.5q102 0 175.5 -37t129.5 -90l94 110 q-33 35 -73 64.5t-89 51t-107.5 35t-125.5 13.5q-96 0 -175 -25.5t-134.5 -72.5t-85 -113.5t-29.5 -150.5q0 -86 29.5 -146.5t79.5 -102.5t112.5 -72t129 -55.5t129 -52t113 -62.5t80 -87t29.5 -127q0 -57 -18.5 -104t-55 -82t-93 -54.5t-132.5 -19.5q-61 0 -113.5 13.5 t-97.5 37t-84 56t-73 73.5zM449 41v-246h133v246h-133zM463 1393h133v245h-133v-245z" />
<glyph unicode="%" horiz-adv-x="1654" d="M123 1118q0 -74 25.5 -134t70.5 -103t106.5 -66.5t133.5 -23.5t133 23.5t106 66.5t71 103t26 134t-26 134.5t-71 103.5t-106.5 66.5t-132.5 23.5q-74 0 -135.5 -23.5t-106.5 -66.5t-69.5 -103.5t-24.5 -134.5zM225 0h168l1032 1434h-161zM254 1118q0 92 56.5 148.5 t148.5 56.5q47 0 84 -14.5t64.5 -42t42 -64.5t14.5 -84q0 -92 -56.5 -148.5t-148.5 -56.5t-148.5 56.5t-56.5 148.5zM860 313q0 -74 25.5 -134t70.5 -103t106.5 -66.5t133.5 -23.5t133.5 23.5t106.5 66.5t70.5 103.5t25.5 133.5q0 74 -25.5 134.5t-70.5 103.5t-106.5 66.5 t-133.5 23.5q-74 0 -135.5 -23.5t-106.5 -66.5t-69.5 -103.5t-24.5 -134.5zM991 313q0 92 56.5 148.5t148.5 56.5q47 0 84 -14.5t64.5 -42t42 -64.5t14.5 -84q0 -92 -56.5 -148t-148.5 -56t-148.5 56t-56.5 148z" />
<glyph unicode="&#x26;" horiz-adv-x="1314" d="M123 410q0 -96 33.5 -175t96 -135.5t150 -88t193.5 -31.5q102 0 186 27.5t146.5 79.5t101.5 126t47 166v41h-131q0 -70 -24.5 -126t-70.5 -96t-110.5 -62.5t-144.5 -22.5q-76 0 -136.5 21.5t-102.5 61.5t-64.5 96t-22.5 126t22.5 125t65.5 94t104.5 59.5t137.5 20.5h41 v123h-41q-55 0 -101 17t-79 48t-50.5 76t-17.5 100q0 57 16.5 101.5t47 75t76 47t102.5 16.5q129 2 203.5 -76t76.5 -213h132v47q-6 88 -37 158t-84.5 118t-126 73.5t-162.5 25.5q-86 0 -157.5 -27.5t-124 -75.5t-81 -114t-28.5 -145q0 -63 20.5 -117.5t56 -96.5t86 -67 t111.5 -31l25 23q-88 -8 -159 -40t-120 -82t-75.5 -118.5t-26.5 -152.5zM674 412h602v133h-602v-133z" />
<glyph unicode="'" horiz-adv-x="358" d="M102 1434l21 -533h113l20 533h-154z" />
<glyph unicode="(" horiz-adv-x="722" d="M123 596q0 -221 45 -396t115.5 -309.5t154.5 -228.5t160 -154h145v33q-94 72 -179 173.5t-149.5 233.5t-102.5 293.5t-38 354.5t38 353.5t102.5 291.5t149.5 232.5t179 173.5v32h-145q-76 -61 -160 -154t-154.5 -226.5t-115.5 -307.5t-45 -395z" />
<glyph unicode=")" horiz-adv-x="722" d="M-20 -459q94 72 179 173.5t149.5 233.5t102.5 293.5t38 354.5t-38 353.5t-102.5 291.5t-149.5 232.5t-179 173.5v32h145q76 -61 160 -154t154.5 -226.5t115.5 -307.5t45 -395t-45 -396t-115.5 -309.5t-154.5 -228.5t-160 -154h-145v33z" />
<glyph unicode="*" horiz-adv-x="987" d="M82 1087l313 -86l-202 -251l124 -91l177 271l178 -275l125 90l-207 256l313 86l-47 146l-303 -115l16 316h-153l16 -316l-301 115z" />
<glyph unicode="+" horiz-adv-x="1269" d="M205 655h860v133h-860v-133zM568 293h133v860h-133v-860z" />
<glyph unicode="," horiz-adv-x="485" d="M51 -328h129l72 150q45 94 76.5 156.5t31.5 113.5q0 27 -9 49.5t-25.5 39t-39 25.5t-50.5 9q-45 0 -80 -31.5t-35 -83.5q0 -27 12 -50t36 -36.5t59.5 -17.5t80.5 8l-43 72z" />
<glyph unicode="-" horiz-adv-x="786" d="M119 414h549v133h-549v-133z" />
<glyph unicode="." horiz-adv-x="477" d="M125 88q0 -45 30 -76.5t83 -31.5q27 0 48 8t35.5 23.5t22.5 35t8 41.5q0 47 -29.5 80t-84.5 33t-84 -33t-29 -80z" />
<glyph unicode="/" horiz-adv-x="598" d="M-41 -492h152l507 1926h-151z" />
<glyph unicode="0" horiz-adv-x="1196" d="M133 715q0 -164 32 -298t91 -229.5t147 -147.5t199 -52q96 0 180 48t146.5 141t98.5 229.5t36 312.5q0 164 -31 298t-91 229t-147 147.5t-198 52.5q-96 0 -180 -48t-147.5 -141.5t-99.5 -229.5t-36 -312zM287 715q0 158 24.5 269.5t67.5 182t99.5 103.5t117.5 33 q70 0 127 -35t99 -106.5t64.5 -181.5t22.5 -261q0 -158 -24.5 -269.5t-66.5 -182t-98.5 -103.5t-117.5 -33q-70 0 -127 35t-99 106.5t-65.5 182t-23.5 260.5z" />
<glyph unicode="1" horiz-adv-x="819" d="M137 1141l355 135l-86 59v-1335h147v1454l-416 -160v-153z" />
<glyph unicode="2" horiz-adv-x="1196" d="M154 0h866v133h-741l83 -65l381 464q72 88 119 162t76 140.5t40 128t11 124.5q0 76 -24.5 141.5t-73.5 114t-121 76t-166 27.5q-78 0 -144.5 -19.5t-120.5 -50t-95 -69.5t-70 -78l92 -84q72 84 152 125t172 41q113 0 182.5 -59.5t69.5 -180.5q0 -55 -9.5 -105.5 t-36 -106.5t-72.5 -123.5t-118 -157.5l-452 -558v-20z" />
<glyph unicode="3" horiz-adv-x="1196" d="M150 180q39 -53 88 -91t104 -62.5t115 -35.5t121 -11q106 0 195 32.5t154.5 91t102.5 137t37 173.5q0 80 -26.5 149.5t-76 122.5t-120 84t-158.5 31v-23q49 2 101.5 22.5t96.5 59.5t72.5 97.5t28.5 134.5q0 78 -27.5 144.5t-79 114.5t-125 75.5t-165.5 27.5 q-61 0 -119.5 -15.5t-111 -43t-95.5 -65.5t-74 -81l95 -86q23 33 54.5 61.5t70 50t85 34t97.5 12.5q61 0 107 -18.5t77 -50t47.5 -75.5t16.5 -96q0 -53 -16.5 -97t-48.5 -77t-78 -50t-105 -17h-41v-123h41q74 0 134 -20.5t104 -57.5t68 -91t24 -122q0 -70 -26 -127t-71 -98 t-107.5 -64.5t-137.5 -23.5q-55 0 -103.5 11t-89.5 32.5t-73.5 51.5t-59.5 64z" />
<glyph unicode="4" horiz-adv-x="1196" d="M47 412h1004v133h-865l35 -72l574 723h-74v-1196h147v1454h-41l-780 -987v-55z" />
<glyph unicode="5" horiz-adv-x="1196" d="M129 180q39 -53 88 -91t104.5 -62.5t115 -35.5t120.5 -11q106 0 195.5 33.5t155 95t102.5 147.5t37 190q0 102 -33 185.5t-95.5 144t-152.5 93t-203 32.5q-47 0 -93 -9t-89 -24l51 -67l55 567l-75 -78h534v144h-588l-73 -699h71q45 16 91.5 25.5t93.5 9.5 q78 0 144.5 -20.5t113.5 -60.5t73.5 -100.5t26.5 -139.5q0 -74 -25.5 -135.5t-70.5 -106.5t-107.5 -69.5t-138.5 -24.5q-113 0 -189.5 47t-125.5 121z" />
<glyph unicode="6" horiz-adv-x="1196" d="M135 465q0 -117 39 -207t104.5 -149.5t152.5 -90t185 -30.5q92 0 178.5 28.5t153 85t105.5 142.5t39 202q0 113 -37 198t-98.5 143.5t-140.5 88t-163 29.5q-70 0 -129 -18.5t-109 -51t-91 -76.5t-74 -95h20l539 753v17h-168l-270 -390q-53 -76 -96.5 -147.5t-74 -142 t-48 -141t-17.5 -148.5zM283 455q0 78 25.5 139t70.5 102t105.5 62.5t127.5 21.5q70 0 130.5 -22.5t105.5 -65.5t70.5 -104.5t25.5 -141.5t-26.5 -140t-71.5 -101t-105.5 -62.5t-126.5 -21.5q-68 0 -128 22.5t-105 64.5t-71.5 104.5t-26.5 142.5z" />
<glyph unicode="7" horiz-adv-x="1024" d="M109 1290h739l-62 86l-485 -1376h154l487 1393v41h-833v-144z" />
<glyph unicode="8" horiz-adv-x="1196" d="M123 410q0 -92 32.5 -170t94 -136.5t149.5 -91t199 -32.5t199 32.5t149.5 91t94 136t32.5 170.5q0 76 -23.5 143.5t-70.5 119.5t-119 87t-168 43l25 -23q47 4 96 27.5t89 63.5t64.5 95.5t24.5 125.5q0 82 -28.5 148.5t-80 114.5t-124 73.5t-160.5 25.5t-160.5 -25.5 t-124 -73.5t-80 -114.5t-28.5 -148.5q0 -70 24.5 -125.5t64.5 -95.5t89 -63.5t96 -27.5l25 23q-96 -8 -168 -43t-119 -87t-70.5 -120t-23.5 -143zM270 418q0 72 23.5 127t66.5 93t103.5 58.5t134.5 20.5t134.5 -20.5t103.5 -58.5t66.5 -93.5t23.5 -126.5q0 -70 -23.5 -126 t-66.5 -96t-103.5 -61.5t-134.5 -21.5t-134.5 21.5t-103.5 61.5t-66.5 96t-23.5 126zM352 1081q0 111 63.5 175.5t182.5 64.5t182.5 -64.5t63.5 -175.5q0 -49 -16.5 -93t-47 -76.5t-77 -52t-105.5 -19.5t-105.5 19.5t-77 52t-47 76.5t-16.5 93z" />
<glyph unicode="9" horiz-adv-x="1196" d="M104 987q0 -113 37 -197.5t98.5 -143t140.5 -88.5t163 -30q70 0 129 18.5t109 51.5t91 77t74 95h-20l-539 -754v-16h168l270 389q53 76 96.5 147.5t74 142.5t48 142.5t17.5 147.5q0 117 -39 207t-104.5 149t-152.5 90t-185 31q-92 0 -178.5 -28.5t-153 -85t-105.5 -142.5 t-39 -203zM252 987q0 80 26.5 140.5t71.5 101.5t105.5 62.5t126.5 21.5q68 0 128 -22.5t105 -64.5t71.5 -104.5t26.5 -142.5q0 -78 -25.5 -138.5t-70.5 -102.5t-105.5 -63.5t-127.5 -21.5q-70 0 -130.5 22.5t-105.5 65.5t-70.5 104.5t-25.5 141.5z" />
<glyph unicode=":" horiz-adv-x="477" d="M125 88q0 -45 30 -76.5t83 -31.5q27 0 48 8t35.5 23.5t22.5 35t8 41.5q0 47 -29.5 80t-84.5 33t-84 -33t-29 -80zM125 803q0 -45 30 -76.5t83 -31.5q27 0 48 8t35.5 23.5t22.5 35t8 41.5q0 47 -29.5 80t-84.5 33t-84 -33t-29 -80z" />
<glyph unicode=";" horiz-adv-x="477" d="M47 -328h129l72 150q45 94 76.5 156.5t31.5 113.5q0 27 -9 49.5t-25.5 39t-39 25.5t-50.5 9q-45 0 -80 -31.5t-35 -83.5q0 -27 12 -50t36 -36.5t59.5 -17.5t80.5 8l-43 72zM125 803q0 -45 30 -76.5t83 -31.5q27 0 48 8t35.5 23.5t22.5 35t8 41.5q0 47 -29.5 80t-84.5 33 t-84 -33t-29 -80z" />
<glyph unicode="&#x3c;" horiz-adv-x="1269" d="M195 723l803 -508v158l-643 393v-86l643 394v157z" />
<glyph unicode="=" horiz-adv-x="1269" d="M242 444h860v133h-860v-133zM242 868h860v133h-860v-133z" />
<glyph unicode="&#x3e;" horiz-adv-x="1269" d="M272 203l803 508l-803 508v-158l643 -393v86l-643 -394v-157z" />
<glyph unicode="?" horiz-adv-x="1019" d="M113 1028h135q0 68 17.5 121t50 90t78.5 56.5t106 19.5q57 0 101 -18.5t72.5 -50.5t44 -76t15.5 -95q0 -72 -23.5 -122t-59.5 -91t-77 -77.5t-76.5 -85t-59 -112t-23.5 -157.5h133q0 72 25.5 124t64.5 96t85 86t85 92.5t64.5 114t25.5 151.5q0 84 -30.5 150.5t-83 111.5 t-124 68.5t-155.5 23.5q-78 0 -145.5 -21.5t-120 -67.5t-86 -117t-39.5 -167v-47zM369 88q0 -45 29.5 -76.5t82.5 -31.5q27 0 48.5 8t36 23.5t22.5 35t8 41.5q0 47 -29.5 80t-85.5 33q-55 0 -83.5 -33t-28.5 -80z" />
<glyph unicode="@" horiz-adv-x="1832" d="M88 537q0 -182 57.5 -335t165 -262.5t261 -171t346.5 -61.5v123q-158 0 -287 50t-220.5 142.5t-140.5 222.5t-49 292t48 290.5t138.5 220t219.5 139.5t291 48q154 0 281.5 -39t219.5 -118t143.5 -197.5t51.5 -278.5q0 -84 -13.5 -149.5t-37 -109.5t-57 -67.5t-74.5 -23.5 q-27 0 -51.5 10t-45 29.5t-33 50.5t-12.5 72l-114 -64q0 -57 23.5 -98t59 -66.5t79.5 -37t87 -11.5q76 0 135.5 34t101.5 95.5t63.5 146.5t21.5 189q0 170 -60.5 309.5t-169 238.5t-262 153.5t-337.5 54.5q-197 0 -351.5 -61.5t-260 -171t-162 -260t-56.5 -328.5zM537 530 q0 -92 27.5 -165.5t74.5 -125t111.5 -79t138.5 -27.5q61 0 112.5 18.5t89 50t63.5 74.5t34 93l-25 155q0 -57 -16.5 -107t-48 -87t-79.5 -58.5t-110 -21.5q-59 0 -105 20.5t-77 58.5t-46 91t-15 117q0 133 64.5 203.5t180.5 70.5q61 0 108.5 -20.5t79 -55.5t48 -84 t16.5 -108l15 166q-6 39 -27 77.5t-55.5 70.5t-86 51.5t-118.5 19.5q-76 0 -141.5 -28t-112.5 -79t-73.5 -124.5t-26.5 -166.5zM1163 336l127 -12v577h-121v-182l-6 -21v-362z" />
<glyph unicode="A" horiz-adv-x="1314" d="M29 0h164l501 1262h-84l506 -1262h170l-600 1454h-63zM307 393h688v144h-688v-144z" />
<glyph unicode="B" horiz-adv-x="1179" d="M209 0h369q111 0 203.5 30.5t159.5 87t103.5 135.5t36.5 173q0 82 -27.5 150.5t-76.5 118.5t-115.5 79t-144.5 33l12 -25q35 10 74 34t73.5 61.5t57 92t22.5 128.5q0 76 -27.5 137t-78.5 105t-124 69t-161 25h-356v-1434zM301 143l55 -77v1302l-55 -78h211 q150 0 219.5 -53t69.5 -160q0 -57 -20.5 -100t-58.5 -71.5t-91 -44t-119 -15.5h-182v-139h245q76 0 140.5 -16.5t111.5 -50.5t73 -85t26 -121q0 -66 -23.5 -119t-72 -92t-121 -59.5t-168.5 -20.5h-240z" />
<glyph unicode="C" horiz-adv-x="1394" d="M100 715q0 -160 56.5 -295t159 -233.5t244.5 -152.5t314 -54q84 0 155 12t129.5 32.5t105.5 48t84 56.5l-80 129q-41 -35 -87 -59.5t-95.5 -41t-101.5 -23.5t-105 -7q-137 0 -251 45t-197 123t-129 186.5t-46 233.5q0 127 46 235.5t128 187.5t194.5 124t245.5 45 q106 0 201.5 -30t173.5 -85l74 133q-86 57 -199.5 93t-255.5 36q-170 0 -310 -55.5t-241.5 -154.5t-157 -234.5t-55.5 -294.5z" />
<glyph unicode="D" horiz-adv-x="1443" d="M209 0h151v1434h-151v-1434zM283 0h297q145 0 283 42t244.5 130t171 223t64.5 322q0 160 -53 291t-152.5 226t-241.5 147.5t-321 52.5h-290v-144h284q139 0 253 -40t196 -113.5t126 -180t44 -241.5q0 -129 -42 -234.5t-122 -180.5t-195 -116t-260 -41h-284z" />
<glyph unicode="E" horiz-adv-x="1105" d="M209 0h764v143h-613v549h492v144h-492v454h592v144h-743v-1434z" />
<glyph unicode="F" horiz-adv-x="1058" d="M209 0h151v647h535v144h-535v499h576v144h-727v-1434z" />
<glyph unicode="G" horiz-adv-x="1650" d="M100 713q0 -156 52.5 -290t148.5 -232.5t231.5 -154.5t301.5 -56q111 0 206 21.5t174.5 64.5t142 106.5t105.5 146t65.5 184t22.5 222.5h-721v-152h611l-43 58q-8 -127 -53.5 -222.5t-118 -158t-170 -93t-211.5 -30.5q-127 0 -234.5 45t-186.5 123t-123 184.5t-44 231.5 q0 115 39 221t114.5 190t185.5 134.5t251 50.5q59 0 121.5 -9.5t125 -32t122 -59.5t110.5 -92l107 127q-61 59 -131 100t-144 66t-150.5 36t-150.5 11q-186 0 -327.5 -61.5t-236.5 -165t-143.5 -236.5t-48.5 -278z" />
<glyph unicode="H" horiz-adv-x="1495" d="M209 0h151v1434h-151v-1434zM285 686h925v143h-925v-143zM1135 0h151v1434h-151v-1434z" />
<glyph unicode="I" horiz-adv-x="569" d="M209 0h151v1434h-151v-1434z" />
<glyph unicode="J" horiz-adv-x="692" d="M41 2q16 -4 37.5 -8t56.5 -4q86 0 154.5 25.5t116 75.5t73 125t25.5 175v1043h-152v-1041q0 -135 -53 -195.5t-172 -60.5q-20 0 -44 3t-42 10v-148z" />
<glyph unicode="K" horiz-adv-x="1275" d="M209 0h151v1434h-151v-1434zM276 684h254v139h-254v-139zM410 752l673 -752h168v41l-708 790v-135l547 697v41h-152z" />
<glyph unicode="L" horiz-adv-x="983" d="M209 0h723v143h-639l67 -67v1358h-151v-1434z" />
<glyph unicode="M" horiz-adv-x="1773" d="M129 0h150l149 1151h-45l477 -1161h39l463 1159h-35l170 -1149h148l-215 1434h-97l-487 -1231h78l-504 1231h-96z" />
<glyph unicode="N" horiz-adv-x="1533" d="M209 0h151v1202h-55l934 -1202h86v1434h-151v-1172h55l-907 1172h-113v-1434z" />
<glyph unicode="O" horiz-adv-x="1654" d="M100 719q0 -156 52.5 -291t147.5 -235.5t229 -156.5t298 -56t298.5 56t229.5 155.5t147 233.5t52 290q0 158 -52 292t-147 234t-229.5 156.5t-298.5 56.5t-298 -56.5t-229 -155.5t-147.5 -233.5t-52.5 -289.5zM256 717q0 129 43 236.5t120 186.5t181.5 123t226.5 44 q123 0 227.5 -44t181.5 -123t120 -186.5t43 -236.5t-43 -236.5t-120 -186.5t-181.5 -123t-227.5 -44t-227 44t-181 123t-120 186.5t-43 236.5z" />
<glyph unicode="P" horiz-adv-x="1132" d="M209 0h151v590h238q104 0 190 33.5t146.5 91t93.5 135.5t33 166q0 86 -33 162.5t-93.5 133t-146.5 89.5t-190 33h-389v-1434zM360 733v557h228q76 0 134 -22.5t99 -60.5t62.5 -88t21.5 -107t-21.5 -108.5t-62.5 -89.5t-99 -59.5t-134 -21.5h-228z" />
<glyph unicode="Q" horiz-adv-x="1654" d="M100 719q0 -156 52.5 -291t147.5 -235.5t229 -156.5t298 -56t298.5 56t229.5 155.5t147 233.5t52 290q0 158 -52 292t-147 234t-229.5 156.5t-298.5 56.5t-298 -56.5t-229 -155.5t-147.5 -233.5t-52.5 -289.5zM256 717q0 129 43 236.5t120 186.5t181.5 123t226.5 44 q123 0 227.5 -44t181.5 -123t120 -186.5t43 -236.5t-43 -236.5t-120 -186.5t-181.5 -123t-227.5 -44t-227 44t-181 123t-120 186.5t-43 236.5zM850 33l604 -402h41v152l-487 326z" />
<glyph unicode="R" horiz-adv-x="1202" d="M209 0h151v586h244q104 0 187 33.5t142.5 92t91.5 136.5t32 166t-32 164.5t-91.5 133t-142.5 89.5t-187 33h-395v-1434zM360 729v561h224q76 0 135 -21.5t100 -59.5t61.5 -88t20.5 -109t-20.5 -110.5t-61.5 -90.5t-100 -60.5t-135 -21.5h-224zM512 606l508 -606h162v43 l-506 604z" />
<glyph unicode="S" horiz-adv-x="1064" d="M66 184q39 -43 86 -79.5t106 -64.5t130 -44t155 -16q94 0 177 26.5t144.5 78.5t97 132t35.5 184q0 90 -29.5 155t-79.5 111t-112.5 79.5t-129 61.5t-129 54.5t-113 59t-80 75.5t-29.5 105q0 47 17.5 84t51 64.5t83 42t112.5 14.5q102 0 176 -37t129 -90l94 110 q-33 35 -72.5 64.5t-88.5 51t-107.5 35t-126.5 13.5q-96 0 -175 -25.5t-134 -72.5t-85 -113.5t-30 -150.5q0 -86 30 -146.5t80 -102.5t112.5 -72t129 -55.5t129 -52t112.5 -62.5t80 -87t30 -127q0 -57 -18.5 -104t-55.5 -82t-93.5 -54.5t-131.5 -19.5q-61 0 -113.5 13.5 t-97.5 37t-84 56t-74 73.5z" />
<glyph unicode="T" horiz-adv-x="991" d="M31 1290h389v-1290h151v1290h390v144h-930v-144z" />
<glyph unicode="U" horiz-adv-x="1421" d="M188 567q0 -131 35 -238.5t101.5 -185t164 -120.5t222.5 -43t222 41.5t163.5 118.5t101.5 185.5t35 241.5v867h-152v-859q0 -225 -97 -336.5t-273 -111.5q-88 0 -157 27.5t-116 84t-72.5 140.5t-25.5 196v859h-152v-867z" />
<glyph unicode="V" horiz-adv-x="1257" d="M27 1393l577 -1413h47l580 1413v41h-146l-477 -1190h51l-483 1190h-149v-41z" />
<glyph unicode="W" horiz-adv-x="1794" d="M70 1393l395 -1413h45l432 1245h-90l430 -1245h47l395 1413v41h-141l-317 -1160h53l-397 1160h-50l-397 -1160h53l-317 1160h-141v-41z" />
<glyph unicode="X" horiz-adv-x="1210" d="M76 0h145l383 621l377 -621h154v41l-437 719l392 633v41h-138l-340 -549l-321 549h-160v-41l389 -641l-444 -711v-41z" />
<glyph unicode="Y" horiz-adv-x="1138" d="M35 1393l532 -873l27 8l510 865v41h-150l-411 -703h67l-428 703h-147v-41zM502 0h151v756h-151v-756z" />
<glyph unicode="Z" d="M78 0h962v143h-825l25 -43l815 1231v103h-942v-144h827l-43 68l-819 -1237v-121z" />
<glyph unicode="[" horiz-adv-x="692" d="M209 -492h473v134h-340v1904h340v133h-473v-2171z" />
<glyph unicode="\" horiz-adv-x="598" d="M-20 1434h151l508 -1926h-152z" />
<glyph unicode="]" horiz-adv-x="692" d="M10 -358h340v1904h-340v133h473v-2171h-473v134z" />
<glyph unicode="^" horiz-adv-x="1269" d="M164 719h153l365 600h-94l364 -600h154l-434 715h-74z" />
<glyph unicode="_" horiz-adv-x="593" d="M31 -205v-133h532v133h-532z" />
<glyph unicode="`" horiz-adv-x="419" d="M41 1362l267 -264l71 59l-215 301z" />
<glyph unicode="a" d="M86 451q0 -109 36 -196t95 -147.5t139 -92t166 -31.5q68 0 127.5 19.5t104.5 52t75.5 76.5t40.5 95v217h-28q0 -59 -20.5 -117.5t-58.5 -104.5t-95.5 -73.5t-130.5 -27.5q-66 0 -121.5 23.5t-94 67.5t-60 105.5t-21.5 135.5q0 78 22.5 139t63.5 103t96 63.5t119 21.5 q74 0 130 -26.5t94 -69.5t57.5 -100.5t19.5 -118.5h18v242q-6 37 -32.5 74.5t-69.5 68.5t-102.5 49.5t-133.5 18.5q-90 0 -170 -33t-139 -93.5t-93 -146.5t-34 -194zM842 258l8 -31v-227h139v633v14v254h-139v-254l-8 -14v-375z" />
<glyph unicode="b" d="M154 0h139v227l8 31v375v14v787h-147v-787v-14v-633zM272 227q10 -51 41 -95t76 -76.5t104.5 -52t127.5 -19.5q86 0 165.5 31.5t139 92t95.5 147.5t36 196t-34 194.5t-93.5 146t-139 93.5t-169.5 33q-74 0 -133.5 -18.5t-102.5 -49.5t-69.5 -69t-32.5 -74v-242h18 q0 61 19.5 118.5t57.5 100.5t94 69.5t130 26.5q66 0 120 -21.5t95 -63.5t63.5 -103.5t22.5 -138.5q0 -74 -21.5 -135.5t-60.5 -105.5t-94 -67.5t-121 -23.5q-74 0 -131 27.5t-95 73.5t-58.5 104.5t-20.5 117.5h-29v-217z" />
<glyph unicode="c" horiz-adv-x="972" d="M86 455q0 -100 33 -186.5t93 -150t147.5 -99t193.5 -35.5q123 0 213 44t147 111l-92 92q-41 -51 -106.5 -82.5t-149.5 -31.5q-72 0 -132 24.5t-105 69.5t-70 107.5t-25 138.5q0 78 26 138t70 102t102 64.5t124 22.5q78 0 145.5 -30.5t112.5 -83.5l86 114 q-31 31 -69.5 56.5t-83 42t-93.5 26t-100 9.5q-98 0 -183 -32t-147.5 -91.5t-99.5 -145.5t-37 -194z" />
<glyph unicode="d" d="M86 451q0 -109 36 -196t95 -147.5t139 -92t166 -31.5q68 0 127.5 19.5t104.5 52t75.5 76.5t40.5 95v217h-28q0 -59 -20.5 -117.5t-58.5 -104.5t-95.5 -73.5t-130.5 -27.5q-66 0 -121.5 23.5t-94 67.5t-60 105.5t-21.5 135.5q0 78 22.5 139t63.5 103t96 63.5t119 21.5 q74 0 130 -26.5t94 -69.5t57.5 -100.5t19.5 -118.5h18v242q-6 37 -32.5 74.5t-69.5 68.5t-102.5 49.5t-133.5 18.5q-90 0 -170 -33t-139 -93.5t-93 -146.5t-34 -194zM842 258l8 -31v-227h139v633v14v787h-147v-787v-14v-375z" />
<glyph unicode="e" horiz-adv-x="1067" d="M86 451q0 -109 36 -195t98.5 -146.5t147.5 -93t185 -32.5q113 0 216 42t169 130l-96 88q-45 -59 -120 -93t-161 -34q-70 0 -130 23.5t-104 67.5t-69 106.5t-25 140.5q0 76 23 136t62.5 103t95 66.5t118.5 23.5q66 0 120.5 -23.5t95 -63.5t63.5 -94t23 -118v-45l84 107 h-734v-125h797v51q0 84 -28.5 163t-84 142.5t-136.5 101.5t-185 38q-90 0 -173 -31t-147.5 -90.5t-102.5 -146.5t-38 -199z" />
<glyph unicode="f" horiz-adv-x="649" d="M68 768h524v133h-524v-133zM221 0h148v1094q0 61 14 101t40 63.5t62.5 32.5t81.5 9h18.5t18.5 -2v140q-8 2 -22.5 4t-40.5 2q-70 0 -128.5 -19.5t-101.5 -60.5t-66.5 -105.5t-23.5 -154.5v-1104z" />
<glyph unicode="g" d="M86 451q0 -109 36 -196t95 -147.5t139 -92t166 -31.5q68 0 127.5 19.5t104.5 52t75.5 76.5t40.5 95v217h-28q0 -59 -20.5 -117.5t-58.5 -104.5t-95.5 -73.5t-130.5 -27.5q-66 0 -121.5 23.5t-94 67.5t-60 105.5t-21.5 135.5q0 78 22.5 139t63.5 103t96 63.5t119 21.5 q74 0 130 -26.5t94 -69.5t57.5 -100.5t19.5 -118.5h18v242q-6 37 -32.5 74.5t-69.5 68.5t-102.5 49.5t-133.5 18.5q-90 0 -170 -33t-139 -93.5t-93 -146.5t-34 -194zM141 -328q35 -43 77 -74.5t89 -53t100.5 -33t110.5 -11.5q94 0 179 29t149.5 86t103.5 145t39 205v936 h-139v-254l-8 -14v-629q0 -90 -21.5 -157.5t-62.5 -113.5t-99.5 -69.5t-132.5 -23.5q-51 0 -93 11t-78 29.5t-65.5 44t-53.5 56.5z" />
<glyph unicode="h" horiz-adv-x="1064" d="M154 0h147v633v14v787h-147v-787v-14v-375v-31v-227zM260 463h41q0 66 17.5 122t51 97t82 64.5t107.5 23.5q45 0 86 -14.5t72 -44t48 -75.5t17 -112v-524h148v539v18q0 84 -25.5 149.5t-71 111.5t-106.5 70.5t-133 24.5q-68 0 -126 -21.5t-102 -56t-72 -78.5t-34 -91 v-203z" />
<glyph unicode="i" horiz-adv-x="454" d="M129 1225q0 -41 29.5 -69t70.5 -28t69 28t28 69t-28 66.5t-69 25.5t-70.5 -25.5t-29.5 -66.5zM154 0h147v901h-147v-901z" />
<glyph unicode="j" horiz-adv-x="454" d="M-37 -369v-133q8 -2 16.5 -2h16.5q166 0 235.5 88t69.5 256v1061h-147v-1081q0 -53 -10.5 -89t-31 -58.5t-49 -33t-63.5 -10.5h-18.5t-18.5 2zM129 1225q0 -41 29.5 -69t70.5 -28t69 28t28 69t-28 66.5t-69 25.5t-70.5 -25.5t-29.5 -66.5z" />
<glyph unicode="k" horiz-adv-x="901" d="M154 0h147v633v14v787h-147v-787v-14v-375v-31v-227zM256 420h176v125h-176v-125zM313 471l408 -471h170v20l-463 535v-137l381 463v20h-158z" />
<glyph unicode="l" horiz-adv-x="454" d="M154 0h147v633v14v787h-147v-787v-14v-375v-31v-227z" />
<glyph unicode="m" horiz-adv-x="1570" d="M154 0h147v633l-8 14v254h-139v-254v-14v-375v-31v-227zM260 463h41q0 63 16.5 118.5t47 97.5t74.5 66.5t100 24.5q78 0 130 -55t52 -176v-539h147v571l-20 68q-6 63 -33 114.5t-66.5 86t-89 54t-102.5 19.5q-57 0 -108.5 -21.5t-91.5 -56t-65.5 -79.5t-31.5 -92v-201z M778 477h90q0 63 14.5 116.5t41 92.5t67.5 61.5t92 22.5q39 0 76 -13.5t65.5 -44t46 -78.5t17.5 -116v-518h148v547v24q0 80 -29 143.5t-77 107.5t-108.5 67.5t-125.5 23.5q-63 0 -116.5 -21.5t-95.5 -56t-69 -78.5t-37 -91v-189z" />
<glyph unicode="n" horiz-adv-x="1064" d="M154 0h147v633l-8 14v254h-139v-254v-14v-375v-31v-227zM260 463h41q0 66 17.5 122t51 97t82 64.5t107.5 23.5q45 0 86 -14.5t72 -44t48 -75.5t17 -112v-524h148v539v18q0 84 -25.5 149.5t-71 111.5t-106.5 70.5t-133 24.5q-68 0 -126 -21.5t-102 -56t-72 -78.5t-34 -91 v-203z" />
<glyph unicode="o" horiz-adv-x="1091" d="M86 455q0 -100 35 -186.5t97.5 -150t146.5 -99t182 -35.5t182 35.5t145.5 99t96.5 149.5t35 187q0 100 -35 185t-96.5 146.5t-145.5 96.5t-182 35t-183 -35t-146.5 -97.5t-96.5 -147.5t-35 -183zM233 455q0 74 23 134t64.5 104t99 67.5t127.5 23.5t127 -23.5t98 -67.5 t63.5 -104.5t22.5 -133.5q0 -74 -22.5 -136.5t-63.5 -107.5t-98 -69.5t-127 -24.5t-127.5 24.5t-98 69.5t-64.5 107.5t-24 136.5z" />
<glyph unicode="p" d="M154 -492h147v719v27v379l-8 14v254h-139v-254v-14v-1125zM272 227q10 -51 41 -95t76 -76.5t104.5 -52t127.5 -19.5q86 0 165.5 31.5t139 92t95.5 147.5t36 196t-34 194.5t-93.5 146t-139 93.5t-169.5 33q-74 0 -133.5 -18.5t-102.5 -49.5t-69.5 -69t-32.5 -74v-242h18 q0 61 19.5 118.5t57.5 100.5t94 69.5t130 26.5q66 0 120 -21.5t95 -63.5t63.5 -103.5t22.5 -138.5q0 -74 -21.5 -135.5t-60.5 -105.5t-94 -67.5t-121 -23.5q-74 0 -131 27.5t-95 73.5t-58.5 104.5t-20.5 117.5h-29v-217z" />
<glyph unicode="q" d="M86 451q0 -109 36 -196t95 -147.5t139 -92t166 -31.5q68 0 127.5 19.5t104.5 52t75.5 76.5t40.5 95v217h-28q0 -59 -20.5 -117.5t-58.5 -104.5t-95.5 -73.5t-130.5 -27.5q-66 0 -121.5 23.5t-94 67.5t-60 105.5t-21.5 135.5q0 78 22.5 139t63.5 103t96 63.5t119 21.5 q74 0 130 -26.5t94 -69.5t57.5 -100.5t19.5 -118.5h18v242q-6 37 -32.5 74.5t-69.5 68.5t-102.5 49.5t-133.5 18.5q-90 0 -170 -33t-139 -93.5t-93 -146.5t-34 -194zM842 227v-719h147v1125v14v254h-139v-254l-8 -14v-379v-27z" />
<glyph unicode="r" horiz-adv-x="669" d="M154 0h147v479q0 63 6 116.5t27.5 92.5t60.5 60.5t103 21.5q25 0 50 -3t50 -7v147q-16 4 -40 5t-40 1q-70 0 -116 -23.5t-74.5 -57t-44 -71.5t-21.5 -67l31 -61v268h-139v-901z" />
<glyph unicode="s" horiz-adv-x="837" d="M57 129q35 -35 75 -62.5t85 -47t95.5 -29.5t107.5 -10q72 0 136.5 17t112.5 53t76.5 90.5t28.5 125.5q0 86 -38 135.5t-95 77t-124.5 43t-125 31.5t-95.5 43t-38 78t50 82.5t141 31.5q74 0 125 -24.5t90 -61.5l86 111q-25 20 -53.5 39.5t-65.5 35t-82 25t-98 9.5 q-70 0 -132.5 -15.5t-108.5 -48.5t-72.5 -81t-26.5 -113q0 -78 37.5 -125t95 -75t125 -44.5t125 -35.5t95.5 -49t38 -83q0 -33 -15.5 -58.5t-43 -44t-66.5 -27.5t-84 -9q-86 0 -155.5 31.5t-123.5 91.5z" />
<glyph unicode="t" horiz-adv-x="692" d="M68 768h532v133h-532v-133zM221 291q0 -82 17.5 -139.5t52.5 -93t88 -52t125 -16.5q23 0 49.5 2t54.5 6v131q-23 -4 -44 -5t-38 -1q-51 0 -81.5 14.5t-47 40t-22.5 60t-6 73.5v918h-148v-938z" />
<glyph unicode="u" horiz-adv-x="1052" d="M135 385q0 -102 24.5 -177t67.5 -124t103.5 -72.5t134.5 -23.5q68 0 122 18.5t95 49t66.5 70.5t37.5 83l-26 59v-268h139v901h-147v-463q0 -68 -17.5 -124t-51.5 -98t-83 -65.5t-113 -23.5q-104 0 -154 70.5t-50 220.5v483h-148v-516z" />
<glyph unicode="v" horiz-adv-x="892" d="M29 881l405 -893h45l385 893v20h-139l-307 -743h94l-330 743h-153v-20z" />
<glyph unicode="w" horiz-adv-x="1273" d="M51 881l275 -889h77l297 751h-118l295 -751h71l275 889v20h-133l-216 -696l62 6l-264 690h-51l-265 -688l60 -6l-217 694h-148v-20z" />
<glyph unicode="x" horiz-adv-x="882" d="M33 0h157l285 406h-67l276 -406h166v20l-369 529v-152l344 484v20h-151l-264 -387h71l-258 387h-168v-20l342 -496v152l-364 -517v-20z" />
<glyph unicode="y" horiz-adv-x="907" d="M29 881l391 -912l74 195l-312 737h-153v-20zM219 -471v-21h143l517 1373v20h-144z" />
<glyph unicode="z" horiz-adv-x="866" d="M72 0h725v133h-508l516 705v63h-721v-133h502l-514 -705v-63z" />
<glyph unicode="{" horiz-adv-x="800" d="M61 575q141 -39 198.5 -115.5t57.5 -187.5v-436q0 -86 14.5 -148.5t48.5 -102.5t91 -58.5t143 -18.5h177v134h-179q-41 0 -71.5 8t-50 28.5t-29.5 57.5t-10 96v442q0 72 -17.5 127.5t-49.5 94.5t-78 62.5t-101 35.5q55 12 101 35.5t78 62.5t49.5 94.5t17.5 126.5v443 q0 59 10 96t29.5 57.5t50 28.5t71.5 8h179v133h-177q-86 0 -143 -18.5t-91 -58t-48.5 -102t-14.5 -148.5v-437q0 -111 -57 -187.5t-199 -115.5v-37z" />
<glyph unicode="|" horiz-adv-x="565" d="M209 -492h147v1926h-147v-1926z" />
<glyph unicode="}" horiz-adv-x="800" d="M10 -358h179q41 0 71.5 8t50 28.5t29.5 57.5t10 96v442q0 72 17.5 127.5t49.5 94.5t78 62.5t101 35.5q-55 12 -101 35.5t-78 62.5t-49.5 94.5t-17.5 126.5v443q0 59 -10 96t-29.5 57.5t-50 28.5t-71.5 8h-179v133h177q86 0 143 -18.5t91 -58t48.5 -102t14.5 -148.5v-437 q0 -111 57 -187.5t199 -115.5v-37q-141 -39 -198.5 -115.5t-57.5 -187.5v-436q0 -86 -14.5 -148.5t-48.5 -102.5t-91 -58.5t-143 -18.5h-177v134z" />
<glyph unicode="~" horiz-adv-x="1269" d="M221 526h115q4 59 29.5 93t78.5 34q37 0 76 -19.5t83 -44t96.5 -44t115.5 -19.5q104 0 169 66.5t65 191.5h-115q-4 -68 -34 -97.5t-89 -29.5q-53 0 -94 19.5t-82 44t-87 44t-110 19.5q-45 0 -85 -14t-69.5 -46t-46 -81t-16.5 -117z" />
<glyph unicode="&#xa1;" horiz-adv-x="505" d="M139 813q0 -47 30 -80t85 -33t84 33t29 80q0 45 -30 77t-83 32q-27 0 -48.5 -8.5t-35.5 -24t-22.5 -34.5t-8.5 -42zM170 430v-922h164v922h-164z" />
<glyph unicode="&#xa2;" horiz-adv-x="972" d="M86 455q0 -100 33 -186.5t93 -150t147.5 -99t193.5 -35.5q123 0 213 44t147 111l-92 92q-41 -51 -106.5 -82.5t-149.5 -31.5q-72 0 -132 24.5t-105 69.5t-70 107.5t-25 138.5q0 78 26 138t70 102t102 64.5t124 22.5q78 0 145.5 -30.5t112.5 -83.5l86 114 q-31 31 -69.5 56.5t-83 42t-93.5 26t-100 9.5q-98 0 -183 -32t-147.5 -91.5t-99.5 -145.5t-37 -194zM467 61v-245h133v245h-133zM467 874h133v246h-133v-246z" />
<glyph unicode="&#xa3;" horiz-adv-x="1036" d="M102 0h842v143h-842v-143zM104 655h756v133h-756v-133zM260 20h148v1049q0 117 53 177.5t139 60.5q88 0 138 -58.5t53 -169.5h131v47q0 86 -27 148.5t-71 102.5t-102 58.5t-122 18.5q-80 0 -143.5 -28.5t-107.5 -83t-66.5 -133.5t-22.5 -177v-1012z" />
<glyph unicode="&#xa4;" horiz-adv-x="1085" d="M88 416l94 -94l160 159q41 -29 92.5 -44t108.5 -15t108 15.5t92 43.5l160 -159l94 94l-161 162q20 37 31.5 79.5t11.5 92.5q0 49 -11.5 92t-33.5 80l163 161l-94 95l-162 -160q-41 29 -92 44t-110 15q-57 0 -106.5 -14t-90.5 -43l-160 160l-94 -97l162 -159 q-20 -37 -31.5 -81t-11.5 -93t11 -92.5t34 -79.5zM338 750q0 47 14.5 83.5t42 64.5t65.5 42t83 14q47 0 84 -14t64.5 -42t42 -64.5t14.5 -83.5q0 -45 -14.5 -83t-42 -66t-64.5 -42t-84 -14q-45 0 -83 14t-65.5 42t-42 66t-14.5 83z" />
<glyph unicode="&#xa5;" horiz-adv-x="1130" d="M35 1393l532 -873l529 873v41h-162l-406 -695l95 2l-420 693h-168v-41zM135 244h860v133h-860v-133zM135 573h860v134h-860v-134zM489 0h152v756h-152v-756z" />
<glyph unicode="&#xa6;" horiz-adv-x="565" d="M209 299v-791h147v791h-147zM209 735h147v699h-147v-699z" />
<glyph unicode="&#xa7;" horiz-adv-x="897" d="M66 709q0 -82 42 -136.5t104 -92.5t136 -64.5t136.5 -56t104.5 -67.5t42 -95q0 -29 -9.5 -54.5t-30 -45t-53 -31t-77.5 -11.5q-100 0 -151.5 60.5t-53.5 177.5h-145v-47q6 -82 32.5 -143.5t71.5 -101.5t104.5 -59.5t131.5 -19.5q80 0 141 22.5t102 61.5t62.5 91.5 t21.5 111.5q0 86 -42 139t-104.5 90t-136 63.5t-136 56.5t-104.5 69t-42 102q0 35 13.5 63.5t37 50t53 37t60.5 27.5l-113 62q-45 -18 -81 -45t-62.5 -58.5t-40.5 -70.5t-14 -86zM127 1176q0 -84 41 -139.5t102.5 -93.5t134 -65.5t134 -57t102.5 -67.5t41 -98 q0 -31 -11.5 -59.5t-33 -53t-51 -45t-64.5 -32.5l123 -57q82 37 133 100t51 156q0 84 -40.5 137t-102 91t-134.5 65.5t-134.5 58.5t-102.5 70.5t-41 101.5q0 31 12.5 55.5t34 40.5t49 25.5t60.5 9.5q90 0 141.5 -64.5t53.5 -183.5h131v47q-6 88 -33 150.5t-69 103.5 t-98 60.5t-124 19.5q-76 0 -133 -22.5t-96 -61.5t-57.5 -89t-18.5 -103z" />
<glyph unicode="&#xa8;" horiz-adv-x="702" d="M41 1223q0 -39 29 -67t70 -28t67.5 28t26.5 67q0 41 -26.5 65.5t-67.5 24.5t-70 -24.5t-29 -65.5zM467 1223q0 -39 29 -67t70 -28t67.5 28t26.5 67q0 41 -26.5 65.5t-67.5 24.5t-70 -24.5t-29 -65.5z" />
<glyph unicode="&#xa9;" horiz-adv-x="1857" d="M100 543q0 -180 57.5 -332t165 -261.5t261 -171t346.5 -61.5q188 0 340.5 61.5t260 171t166 261t60.5 332.5q0 180 -57.5 331.5t-165 261t-260 171t-344.5 61.5q-190 0 -343 -61.5t-260.5 -171t-166 -261t-60.5 -331.5zM233 543q0 164 50.5 294t141.5 220t219 139t286 49 t285.5 -49t219 -141t140.5 -222.5t49 -289.5q0 -162 -50 -292t-141.5 -221t-218 -140.5t-284.5 -49.5t-287 49.5t-220 141.5t-140.5 222t-49.5 290zM532 539q0 -86 30 -160t85 -129t133 -86t176 -31q111 0 193 38t135 95l-84 80q-39 -43 -98.5 -70.5t-134.5 -27.5 q-63 0 -118.5 21.5t-95.5 60.5t-63.5 92t-23.5 119t23.5 118t63.5 88.5t93 55t112 18.5q72 0 132.5 -25.5t101.5 -72.5l78 98q-27 29 -63 49.5t-75.5 36t-83.5 22.5t-92 7q-88 0 -165.5 -26.5t-135 -79t-90.5 -126t-33 -165.5z" />
<glyph unicode="&#xaa;" horiz-adv-x="798" d="M51 1118q0 -76 22.5 -136t61.5 -103t92.5 -65.5t114.5 -22.5q49 0 90 15t74 40.5t53.5 61.5t28.5 77l-21 129q0 -43 -14 -82t-40 -67.5t-64.5 -45t-88.5 -16.5q-45 0 -78.5 15.5t-55 45t-33 70.5t-11.5 90q0 96 47 151.5t131 55.5q51 0 90 -15.5t65 -42t39 -63t13 -82.5 l15 138q-6 31 -24.5 62.5t-49.5 57t-74 42t-98 16.5q-63 0 -115.5 -22.5t-90.5 -64.5t-58.5 -102.5t-20.5 -136.5zM567 983l6 -20v-162h134v633h-140v-451z" />
<glyph unicode="&#xab;" horiz-adv-x="958" d="M23 451l399 -431v183l-297 315v-135l297 313v185zM433 451l399 -431v183l-297 315v-135l297 313v185z" />
<glyph unicode="&#xac;" horiz-adv-x="1269" d="M205 655h801l-74 88v-471h133v516h-860v-133z" />
<glyph unicode="&#xad;" horiz-adv-x="786" d="M119 414h549v133h-549v-133z" />
<glyph unicode="&#xae;" horiz-adv-x="1198" d="M102 961q0 -109 34 -200t98.5 -156.5t156.5 -102.5t209 -37q113 0 205 37t156.5 102.5t99.5 156.5t35 200t-34 198.5t-98.5 155t-156.5 102.5t-207 37q-113 0 -205 -37t-157.5 -103.5t-100.5 -156.5t-35 -196zM182 961q0 96 30 173.5t85 132t132 84t171 29.5t171 -29.5 t131 -85t84 -132t30 -172.5q0 -98 -30 -176t-84 -132.5t-131 -84t-171 -29.5t-172 29.5t-132 85t-84 133t-30 174.5zM381 715h86v200h149q98 0 149.5 37t51.5 119q0 78 -47 117t-149 39h-240v-512zM467 981v172h133q61 0 96 -15.5t35 -68.5q0 -45 -28 -66.5t-87 -21.5h-149z M592 924l172 -209h94v10l-182 213z" />
<glyph unicode="&#xaf;" horiz-adv-x="696" d="M41 1188h614v125h-614v-125z" />
<glyph unicode="&#xb0;" horiz-adv-x="901" d="M115 1118q0 -74 25.5 -134t70.5 -103t106.5 -66.5t133.5 -23.5t133 23.5t106 66.5t70.5 103t25.5 134t-25.5 134.5t-70.5 103.5t-106.5 66.5t-132.5 23.5q-74 0 -135.5 -23.5t-106.5 -66.5t-69.5 -103.5t-24.5 -134.5zM246 1118q0 47 14 84t42 64.5t66 42t83 14.5 q47 0 83.5 -14.5t64.5 -42t42 -64.5t14 -84q0 -45 -14 -83t-42 -65.5t-64.5 -42t-83.5 -14.5q-45 0 -83 14.5t-66 42t-42 65.5t-14 83z" />
<glyph unicode="&#xb1;" horiz-adv-x="1269" d="M203 290h860v133h-860v-133zM203 737h860v133h-860v-133zM568 539h133v613h-133v-613z" />
<glyph unicode="&#xb2;" horiz-adv-x="534" d="M25 735h481v113h-328l15 -64l163 191q29 35 53.5 71.5t43 73.5t29 72t10.5 63q0 49 -17.5 86t-46.5 62.5t-66.5 38t-80.5 12.5q-68 0 -131.5 -38t-102.5 -116l98 -53q27 45 57.5 69.5t69.5 24.5q16 0 31.5 -4t29 -14t21.5 -29.5t8 -48.5q0 -20 -4 -42t-17 -49.5 t-36.5 -61t-64.5 -78.5l-215 -242v-37z" />
<glyph unicode="&#xb3;" horiz-adv-x="534" d="M2 870q18 -39 45 -66.5t59.5 -46t70.5 -26.5t77 -8q57 0 104.5 16t80 46t50 69t17.5 84q0 84 -59.5 138t-198.5 54l33 -10q35 0 68.5 11.5t59 33t41 53t15.5 72.5q0 74 -55.5 119t-151.5 45q-76 0 -136.5 -37t-98.5 -104l98 -56q25 39 56.5 61.5t70.5 22.5 q45 0 66.5 -21.5t21.5 -56.5q0 -20 -7 -36.5t-20.5 -27.5t-33 -17.5t-44.5 -6.5h-20v-112h37q59 0 93 -31t34 -86q0 -49 -32 -80t-91 -31q-53 0 -89 30t-63 79z" />
<glyph unicode="&#xb4;" horiz-adv-x="419" d="M41 1157l72 -59l266 264l-123 96z" />
<glyph unicode="&#xb5;" horiz-adv-x="1064" d="M154 -369h147v387q41 -25 89 -37t104 -12q74 0 122 18.5t78.5 50.5t48 74t29.5 87v-199h139v901h-147v-457q0 -74 -8 -135t-34 -104t-73 -67.5t-125 -24.5q-121 0 -172 64.5t-51 201.5v522h-147v-1270z" />
<glyph unicode="&#xb6;" horiz-adv-x="1382" d="M72 963q0 -106 34.5 -193.5t99 -149t154.5 -95t203 -33.5h51v151h-49q-86 0 -150.5 20.5t-107.5 62.5t-63.5 104.5t-20.5 148.5q0 164 86 242.5t262 78.5h43v134h-57q-111 0 -201 -33t-153.5 -94.5t-97 -148.5t-33.5 -195zM580 -492h147v1926h-147v-1926zM625 1300h520 v134h-520v-134zM1026 -492h148v1926h-148v-1926z" />
<glyph unicode="&#xb7;" horiz-adv-x="407" d="M119 477q0 -35 21.5 -58.5t62.5 -23.5t63.5 23.5t22.5 58.5q0 37 -22.5 61.5t-63.5 24.5t-62.5 -24.5t-21.5 -61.5z" />
<glyph unicode="&#xb8;" horiz-adv-x="485" d="M41 -362q20 -33 67 -55.5t119 -22.5q45 0 84 10t69 30.5t47.5 52.5t17.5 73q0 31 -11.5 59.5t-36 52t-66.5 36.5t-104 13l41 -26v159h-81v-217h16q37 0 60.5 -7t36.5 -17t17.5 -23.5t4.5 -27.5q0 -41 -27 -59.5t-70 -18.5q-45 0 -77.5 15.5t-49.5 37.5z" />
<glyph unicode="&#xb9;" horiz-adv-x="481" d="M43 1216l295 115l-86 59v-655h125v725l-334 -119v-125z" />
<glyph unicode="&#xba;" horiz-adv-x="774" d="M51 1116q0 -74 25.5 -134t71 -103t106.5 -67t133 -24t133.5 24t106.5 67t70.5 103t25.5 134t-25.5 134.5t-70.5 103.5t-106.5 66.5t-133.5 23.5q-74 0 -135.5 -23.5t-106.5 -66.5t-69.5 -103.5t-24.5 -134.5zM182 1116q0 49 14.5 88t42 67.5t65.5 44t83 15.5 q47 0 84 -15.5t64.5 -44t42 -67.5t14.5 -88t-14.5 -88t-42 -67.5t-64.5 -44t-84 -15.5q-45 0 -83 15.5t-65.5 44t-42 67.5t-14.5 88z" />
<glyph unicode="&#xbb;" horiz-adv-x="958" d="M127 20l399 430l-399 431v-183l297 -315v135l-297 -313v-185zM536 20l399 430l-399 431v-183l297 -315v135l-297 -313v-185z" />
<glyph unicode="&#xbc;" horiz-adv-x="1288" d="M43 1216l295 115l-86 59v-655h125v725l-334 -119v-125zM69 0h168l1033 1434h-162zM682 170h80l376 532v7h-112l-344 -488v-51zM694 170h563v102h-461l-102 -96v-6zM1032 0h125v709h-125v-709z" />
<glyph unicode="&#xbd;" horiz-adv-x="1312" d="M43 1216l295 115l-86 59v-655h125v725l-334 -119v-125zM69 0h168l1033 1434h-162zM803 0h481v113h-328l15 -64l163 191q29 35 53.5 71.5t43 73.5t29 72t10.5 63q0 49 -17.5 86t-46.5 62.5t-66.5 38t-80.5 12.5q-68 0 -131.5 -38t-102.5 -116l98 -53q27 45 57.5 69.5 t69.5 24.5q16 0 31.5 -4t29 -14t21.5 -29.5t8 -48.5q0 -20 -4 -42t-17 -49.5t-36.5 -61t-64.5 -78.5l-215 -242v-37z" />
<glyph unicode="&#xbe;" horiz-adv-x="1347" d="M2 852q18 -39 45 -66.5t59.5 -46t70.5 -26.5t77 -8q57 0 104.5 16t80 46t50 69t17.5 84q0 84 -59.5 138t-198.5 54l33 -10q35 0 68.5 11.5t59 33t41 53t15.5 72.5q0 74 -55.5 119t-151.5 45q-76 0 -136.5 -37t-98.5 -104l98 -56q25 39 56.5 61.5t70.5 22.5 q45 0 66.5 -21.5t21.5 -56.5q0 -20 -7 -36.5t-20.5 -27.5t-33 -17.5t-44.5 -6.5h-20v-112h37q59 0 93 -31t34 -86q0 -49 -32 -80t-91 -31q-53 0 -89 30t-63 79zM129 0h168l1033 1434h-162zM731 170h80l376 532v7h-112l-344 -488v-51zM743 170h563v102h-461l-102 -96v-6z M1081 0h125v709h-125v-709z" />
<glyph unicode="&#xbf;" horiz-adv-x="882" d="M61 -158q0 -84 31 -150.5t83 -111.5t125 -68.5t155 -23.5q78 0 146.5 21.5t120.5 67.5t85 116.5t39 167.5v47h-135q0 -68 -17.5 -121t-50.5 -90t-79 -56.5t-105 -19.5q-57 0 -101.5 18.5t-73 50t-44 76t-15.5 95.5q0 72 23.5 122t59.5 91t77 77.5t77 85t59.5 112 t23.5 157.5h-133q0 -72 -26 -124t-64.5 -96t-85 -86t-85 -92.5t-64.5 -114t-26 -151.5zM362 813q0 -47 30 -80t85 -33t84 33t29 80q0 45 -30 77t-83 32q-27 0 -48 -8.5t-35.5 -24t-23 -34.5t-8.5 -42z" />
<glyph unicode="&#xc0;" horiz-adv-x="1314" d="M29 0h164l501 1262h-84l506 -1262h170l-600 1454h-63zM307 393h688v144h-688v-144zM443 1688l286 -183l82 78l-235 238z" />
<glyph unicode="&#xc1;" horiz-adv-x="1314" d="M29 0h164l501 1262h-84l506 -1262h170l-600 1454h-63zM307 393h688v144h-688v-144zM488 1587l82 -78l286 183l-133 133z" />
<glyph unicode="&#xc2;" horiz-adv-x="1314" d="M29 0h164l501 1262h-84l506 -1262h170l-600 1454h-63zM307 393h688v144h-688v-144zM356 1569l60 -62l317 189l-156 -2l326 -187l53 62l-201 213h-196z" />
<glyph unicode="&#xc3;" horiz-adv-x="1314" d="M29 0h164l501 1262h-84l506 -1262h170l-600 1454h-63zM307 393h688v144h-688v-144zM330 1542h115q0 35 13 55.5t54 20.5q31 0 60 -12.5t59.5 -25.5t65.5 -25.5t80 -12.5q92 0 141 56.5t49 160.5h-115q0 -39 -17 -57.5t-65 -18.5q-43 0 -71.5 12.5t-56 26t-58.5 25.5 t-76 12q-41 0 -73.5 -12t-56 -39t-36 -68t-12.5 -98z" />
<glyph unicode="&#xc4;" horiz-adv-x="1314" d="M29 0h164l501 1262h-84l506 -1262h170l-600 1454h-63zM307 393h688v144h-688v-144zM336 1651q0 -43 32 -74t79 -31q45 0 75.5 31t30.5 74q0 45 -30.5 73.5t-75.5 28.5q-47 0 -79 -28.5t-32 -73.5zM756 1651q0 -43 32 -74t79 -31q45 0 75.5 31t30.5 74q0 45 -30.5 73.5 t-75.5 28.5q-47 0 -79 -28.5t-32 -73.5z" />
<glyph unicode="&#xc5;" horiz-adv-x="1314" d="M29 0h164l501 1262h-84l506 -1262h170l-600 1454h-63zM307 393h688v144h-688v-144zM418 1677q0 -82 63.5 -123t174.5 -41q109 0 172 41t63 123t-63.5 123t-171.5 41q-111 0 -174.5 -41t-63.5 -123zM551 1677q0 35 23.5 53.5t81.5 18.5q55 0 78.5 -18.5t23.5 -53.5 t-23.5 -53t-78.5 -18q-57 0 -81 18t-24 53z" />
<glyph unicode="&#xc6;" horiz-adv-x="1882" d="M20 0h185l799 1180v-1180h745v143h-594v553h473v144h-473v450h574v144h-725zM455 424h579v143h-481z" />
<glyph unicode="&#xc7;" horiz-adv-x="1394" d="M100 715q0 -160 56.5 -295t159 -233.5t244.5 -152.5t314 -54q84 0 155 12t129.5 32.5t105.5 48t84 56.5l-80 129q-41 -35 -87 -59.5t-95.5 -41t-101.5 -23.5t-105 -7q-137 0 -251 45t-197 123t-129 186.5t-46 233.5q0 127 46 235.5t128 187.5t194.5 124t245.5 45 q106 0 201.5 -30t173.5 -85l74 133q-86 57 -199.5 93t-255.5 36q-170 0 -310 -55.5t-241.5 -154.5t-157 -234.5t-55.5 -294.5zM633 -397q12 -12 29.5 -24.5t41 -22t53 -15.5t64.5 -6q47 0 89 11.5t74 34t50.5 56t18.5 78.5q0 33 -11.5 64t-38 55.5t-68.5 40.5t-105 19 l41 -33v159h-105v-217h39q37 0 60.5 -7t37 -19.5t17.5 -26.5t4 -29q0 -41 -29 -64.5t-76 -23.5q-41 0 -72.5 14.5t-54.5 30.5z" />
<glyph unicode="&#xc8;" horiz-adv-x="1105" d="M209 0h764v143h-613v549h492v144h-492v454h592v144h-743v-1434zM373 1688l286 -183l82 78l-235 238z" />
<glyph unicode="&#xc9;" horiz-adv-x="1105" d="M209 0h764v143h-613v549h492v144h-492v454h592v144h-743v-1434zM418 1587l82 -78l286 183l-133 133z" />
<glyph unicode="&#xca;" horiz-adv-x="1105" d="M209 0h764v143h-613v549h492v144h-492v454h592v144h-743v-1434zM287 1569l60 -62l317 189l-156 -2l326 -187l53 62l-201 213h-196z" />
<glyph unicode="&#xcb;" horiz-adv-x="1105" d="M209 0h764v143h-613v549h492v144h-492v454h592v144h-743v-1434zM266 1651q0 -43 32 -74t79 -31q45 0 75.5 31t30.5 74q0 45 -30.5 73.5t-75.5 28.5q-47 0 -79 -28.5t-32 -73.5zM686 1651q0 -43 32 -74t79 -31q45 0 75.5 31t30.5 74q0 45 -30.5 73.5t-75.5 28.5 q-47 0 -79 -28.5t-32 -73.5z" />
<glyph unicode="&#xcc;" horiz-adv-x="569" d="M72 1688l286 -183l82 78l-235 238zM209 0h151v1434h-151v-1434z" />
<glyph unicode="&#xcd;" horiz-adv-x="569" d="M117 1587l82 -78l286 183l-133 133zM209 0h151v1434h-151v-1434z" />
<glyph unicode="&#xce;" horiz-adv-x="569" d="M-14 1569l60 -62l317 189l-156 -2l326 -187l53 62l-201 213h-196zM209 0h151v1434h-151v-1434z" />
<glyph unicode="&#xcf;" horiz-adv-x="569" d="M55 1651q0 -39 28.5 -67t69.5 -28t69 28t28 67q0 41 -28 66.5t-69 25.5q-20 0 -38.5 -7t-32 -19.5t-20.5 -29t-7 -36.5zM209 0h151v1434h-151v-1434zM319 1651q0 -39 29 -67t72 -28q39 0 66.5 28t27.5 67q0 41 -27.5 66.5t-66.5 25.5q-23 0 -40.5 -7t-30.5 -19.5 t-21.5 -29t-8.5 -36.5z" />
<glyph unicode="&#xd0;" horiz-adv-x="1443" d="M29 680h780v143h-780v-143zM209 0h151v1434h-151v-1434zM283 0h297q145 0 283 42t244.5 130t171 223t64.5 322q0 160 -53 291t-152.5 226t-241.5 147.5t-321 52.5h-290v-144h284q139 0 253 -40t196 -113.5t126 -180t44 -241.5q0 -129 -42 -234.5t-122 -180.5t-195 -116 t-260 -41h-284z" />
<glyph unicode="&#xd1;" horiz-adv-x="1533" d="M209 0h151v1202h-55l934 -1202h86v1434h-151v-1172h55l-907 1172h-113v-1434zM442 1542h115q0 35 13 55.5t54 20.5q31 0 60 -12.5t59.5 -25.5t65.5 -25.5t80 -12.5q92 0 141 56.5t49 160.5h-115q0 -39 -17 -57.5t-65 -18.5q-43 0 -71.5 12.5t-56 26t-58.5 25.5t-76 12 q-41 0 -73.5 -12t-56 -39t-36 -68t-12.5 -98z" />
<glyph unicode="&#xd2;" horiz-adv-x="1654" d="M100 719q0 -156 52.5 -291t147.5 -235.5t229 -156.5t298 -56t298.5 56t229.5 155.5t147 233.5t52 290q0 158 -52 292t-147 234t-229.5 156.5t-298.5 56.5t-298 -56.5t-229 -155.5t-147.5 -233.5t-52.5 -289.5zM256 717q0 129 43 236.5t120 186.5t181.5 123t226.5 44 q123 0 227.5 -44t181.5 -123t120 -186.5t43 -236.5t-43 -236.5t-120 -186.5t-181.5 -123t-227.5 -44t-227 44t-181 123t-120 186.5t-43 236.5zM615 1688l286 -183l82 78l-235 238z" />
<glyph unicode="&#xd3;" horiz-adv-x="1654" d="M100 719q0 -156 52.5 -291t147.5 -235.5t229 -156.5t298 -56t298.5 56t229.5 155.5t147 233.5t52 290q0 158 -52 292t-147 234t-229.5 156.5t-298.5 56.5t-298 -56.5t-229 -155.5t-147.5 -233.5t-52.5 -289.5zM256 717q0 129 43 236.5t120 186.5t181.5 123t226.5 44 q123 0 227.5 -44t181.5 -123t120 -186.5t43 -236.5t-43 -236.5t-120 -186.5t-181.5 -123t-227.5 -44t-227 44t-181 123t-120 186.5t-43 236.5zM660 1587l82 -78l286 183l-133 133z" />
<glyph unicode="&#xd4;" horiz-adv-x="1654" d="M100 719q0 -156 52.5 -291t147.5 -235.5t229 -156.5t298 -56t298.5 56t229.5 155.5t147 233.5t52 290q0 158 -52 292t-147 234t-229.5 156.5t-298.5 56.5t-298 -56.5t-229 -155.5t-147.5 -233.5t-52.5 -289.5zM256 717q0 129 43 236.5t120 186.5t181.5 123t226.5 44 q123 0 227.5 -44t181.5 -123t120 -186.5t43 -236.5t-43 -236.5t-120 -186.5t-181.5 -123t-227.5 -44t-227 44t-181 123t-120 186.5t-43 236.5zM528 1569l60 -62l317 189l-156 -2l326 -187l53 62l-201 213h-196z" />
<glyph unicode="&#xd5;" horiz-adv-x="1654" d="M100 719q0 -156 52.5 -291t147.5 -235.5t229 -156.5t298 -56t298.5 56t229.5 155.5t147 233.5t52 290q0 158 -52 292t-147 234t-229.5 156.5t-298.5 56.5t-298 -56.5t-229 -155.5t-147.5 -233.5t-52.5 -289.5zM256 717q0 129 43 236.5t120 186.5t181.5 123t226.5 44 q123 0 227.5 -44t181.5 -123t120 -186.5t43 -236.5t-43 -236.5t-120 -186.5t-181.5 -123t-227.5 -44t-227 44t-181 123t-120 186.5t-43 236.5zM502 1542h115q0 35 13 55.5t54 20.5q31 0 60 -12.5t59.5 -25.5t65.5 -25.5t80 -12.5q92 0 141 56.5t49 160.5h-115 q0 -39 -17 -57.5t-65 -18.5q-43 0 -71.5 12.5t-56 26t-58.5 25.5t-76 12q-41 0 -73.5 -12t-56 -39t-36 -68t-12.5 -98z" />
<glyph unicode="&#xd6;" horiz-adv-x="1654" d="M100 719q0 -156 52.5 -291t147.5 -235.5t229 -156.5t298 -56t298.5 56t229.5 155.5t147 233.5t52 290q0 158 -52 292t-147 234t-229.5 156.5t-298.5 56.5t-298 -56.5t-229 -155.5t-147.5 -233.5t-52.5 -289.5zM256 717q0 129 43 236.5t120 186.5t181.5 123t226.5 44 q123 0 227.5 -44t181.5 -123t120 -186.5t43 -236.5t-43 -236.5t-120 -186.5t-181.5 -123t-227.5 -44t-227 44t-181 123t-120 186.5t-43 236.5zM508 1651q0 -43 32 -74t79 -31q45 0 75.5 31t30.5 74q0 45 -30.5 73.5t-75.5 28.5q-47 0 -79 -28.5t-32 -73.5zM928 1651 q0 -43 32 -74t79 -31q45 0 75.5 31t30.5 74q0 45 -30.5 73.5t-75.5 28.5q-47 0 -79 -28.5t-32 -73.5z" />
<glyph unicode="&#xd7;" horiz-adv-x="1269" d="M284 487l94 -94l608 608l-94 94zM285 1003l608 -608l94 94l-608 608z" />
<glyph unicode="&#xd8;" horiz-adv-x="1654" d="M100 719q0 -156 52.5 -291t147.5 -235.5t229 -156.5t298 -56t298.5 56t229.5 155.5t147 233.5t52 290q0 158 -52 292t-147 234t-229.5 156.5t-298.5 56.5t-298 -56.5t-229 -155.5t-147.5 -233.5t-52.5 -289.5zM104 109l99 -103l1349 1325l-100 105zM256 717 q0 129 43 236.5t120 186.5t181.5 123t226.5 44q123 0 227.5 -44t181.5 -123t120 -186.5t43 -236.5t-43 -236.5t-120 -186.5t-181.5 -123t-227.5 -44t-227 44t-181 123t-120 186.5t-43 236.5z" />
<glyph unicode="&#xd9;" horiz-adv-x="1421" d="M188 567q0 -131 35 -238.5t101.5 -185t164 -120.5t222.5 -43t222 41.5t163.5 118.5t101.5 185.5t35 241.5v867h-152v-859q0 -225 -97 -336.5t-273 -111.5q-88 0 -157 27.5t-116 84t-72.5 140.5t-25.5 196v859h-152v-867zM498 1688l286 -183l82 78l-235 238z" />
<glyph unicode="&#xda;" horiz-adv-x="1421" d="M188 567q0 -131 35 -238.5t101.5 -185t164 -120.5t222.5 -43t222 41.5t163.5 118.5t101.5 185.5t35 241.5v867h-152v-859q0 -225 -97 -336.5t-273 -111.5q-88 0 -157 27.5t-116 84t-72.5 140.5t-25.5 196v859h-152v-867zM543 1587l82 -78l286 183l-133 133z" />
<glyph unicode="&#xdb;" horiz-adv-x="1421" d="M188 567q0 -131 35 -238.5t101.5 -185t164 -120.5t222.5 -43t222 41.5t163.5 118.5t101.5 185.5t35 241.5v867h-152v-859q0 -225 -97 -336.5t-273 -111.5q-88 0 -157 27.5t-116 84t-72.5 140.5t-25.5 196v859h-152v-867zM412 1569l60 -62l317 189l-156 -2l326 -187l53 62 l-201 213h-196z" />
<glyph unicode="&#xdc;" horiz-adv-x="1421" d="M188 567q0 -131 35 -238.5t101.5 -185t164 -120.5t222.5 -43t222 41.5t163.5 118.5t101.5 185.5t35 241.5v867h-152v-859q0 -225 -97 -336.5t-273 -111.5q-88 0 -157 27.5t-116 84t-72.5 140.5t-25.5 196v859h-152v-867zM391 1651q0 -43 32 -74t79 -31q45 0 75.5 31 t30.5 74q0 45 -30.5 73.5t-75.5 28.5q-47 0 -79 -28.5t-32 -73.5zM811 1651q0 -43 32 -74t79 -31q45 0 75.5 31t30.5 74q0 45 -30.5 73.5t-75.5 28.5q-47 0 -79 -28.5t-32 -73.5z" />
<glyph unicode="&#xdd;" horiz-adv-x="1138" d="M35 1393l532 -873l27 8l510 865v41h-150l-411 -703h67l-428 703h-147v-41zM408 1587l82 -78l286 183l-133 133zM502 0h151v756h-151v-756z" />
<glyph unicode="&#xde;" horiz-adv-x="1112" d="M209 0h151v1434h-151v-1434zM317 315h271q104 0 187 34t142.5 92.5t91 136t31.5 165.5t-31.5 165t-91 133.5t-142.5 89t-187 32.5h-271v-143h250q76 0 135.5 -21.5t100.5 -59.5t61.5 -88t20.5 -110q0 -59 -20.5 -110t-61.5 -90t-100.5 -60.5t-135.5 -21.5h-250v-144z" />
<glyph unicode="&#xdf;" horiz-adv-x="1126" d="M154 0h147v821q0 133 10.5 228.5t39 156t78.5 88t132 27.5q53 0 93 -11.5t68 -34t42 -54t14 -74.5q0 -51 -18.5 -87t-46 -64.5t-59 -53t-59.5 -53.5t-46.5 -66t-18.5 -88q0 -70 34 -122t84 -92t108.5 -72.5t108.5 -63.5t84 -65.5t34 -77.5q0 -53 -50 -91t-142 -38 q-63 0 -113.5 21.5t-95.5 62.5l-70 -93q20 -23 49 -45t66 -39.5t80 -28.5t94 -11q70 0 130 20t104 57t69.5 88.5t25.5 110.5q0 70 -33.5 121t-83.5 91t-108.5 70.5t-109 62.5t-84 65.5t-33.5 78.5q0 33 18.5 58.5t46 50.5t59.5 50.5t59.5 58t46 75.5t18.5 105 q0 63 -23.5 119.5t-70 99.5t-117 67.5t-164.5 24.5q-119 0 -197 -41t-122 -117.5t-61 -186.5t-17 -247v-862z" />
<glyph unicode="&#xe0;" d="M86 451q0 -109 36 -196t95 -147.5t139 -92t166 -31.5q68 0 127.5 19.5t104.5 52t75.5 76.5t40.5 95v217h-28q0 -59 -20.5 -117.5t-58.5 -104.5t-95.5 -73.5t-130.5 -27.5q-66 0 -121.5 23.5t-94 67.5t-60 105.5t-21.5 135.5q0 78 22.5 139t63.5 103t96 63.5t119 21.5 q74 0 130 -26.5t94 -69.5t57.5 -100.5t19.5 -118.5h18v242q-6 37 -32.5 74.5t-69.5 68.5t-102.5 49.5t-133.5 18.5q-90 0 -170 -33t-139 -93.5t-93 -146.5t-34 -194zM331 1362l267 -264l71 59l-215 301zM842 258l8 -31v-227h139v633v14v254h-139v-254l-8 -14v-375z" />
<glyph unicode="&#xe1;" d="M86 451q0 -109 36 -196t95 -147.5t139 -92t166 -31.5q68 0 127.5 19.5t104.5 52t75.5 76.5t40.5 95v217h-28q0 -59 -20.5 -117.5t-58.5 -104.5t-95.5 -73.5t-130.5 -27.5q-66 0 -121.5 23.5t-94 67.5t-60 105.5t-21.5 135.5q0 78 22.5 139t63.5 103t96 63.5t119 21.5 q74 0 130 -26.5t94 -69.5t57.5 -100.5t19.5 -118.5h18v242q-6 37 -32.5 74.5t-69.5 68.5t-102.5 49.5t-133.5 18.5q-90 0 -170 -33t-139 -93.5t-93 -146.5t-34 -194zM410 1157l72 -59l266 264l-123 96zM842 258l8 -31v-227h139v633v14v254h-139v-254l-8 -14v-375z" />
<glyph unicode="&#xe2;" d="M86 451q0 -109 36 -196t95 -147.5t139 -92t166 -31.5q68 0 127.5 19.5t104.5 52t75.5 76.5t40.5 95v217h-28q0 -59 -20.5 -117.5t-58.5 -104.5t-95.5 -73.5t-130.5 -27.5q-66 0 -121.5 23.5t-94 67.5t-60 105.5t-21.5 135.5q0 78 22.5 139t63.5 103t96 63.5t119 21.5 q74 0 130 -26.5t94 -69.5t57.5 -100.5t19.5 -118.5h18v242q-6 37 -32.5 74.5t-69.5 68.5t-102.5 49.5t-133.5 18.5q-90 0 -170 -33t-139 -93.5t-93 -146.5t-34 -194zM256 1186l52 -60l317 207h-156l316 -207l51 60l-197 213h-186zM842 258l8 -31v-227h139v633v14v254h-139 v-254l-8 -14v-375z" />
<glyph unicode="&#xe3;" d="M86 451q0 -109 36 -196t95 -147.5t139 -92t166 -31.5q68 0 127.5 19.5t104.5 52t75.5 76.5t40.5 95v217h-28q0 -59 -20.5 -117.5t-58.5 -104.5t-95.5 -73.5t-130.5 -27.5q-66 0 -121.5 23.5t-94 67.5t-60 105.5t-21.5 135.5q0 78 22.5 139t63.5 103t96 63.5t119 21.5 q74 0 130 -26.5t94 -69.5t57.5 -100.5t19.5 -118.5h18v242q-6 37 -32.5 74.5t-69.5 68.5t-102.5 49.5t-133.5 18.5q-90 0 -170 -33t-139 -93.5t-93 -146.5t-34 -194zM227 1171h103q0 41 19.5 68t60.5 27q31 0 59.5 -14.5t60 -33t68.5 -33t84 -14.5q43 0 77 14.5t57.5 42 t35.5 68.5t12 93h-102q0 -47 -23.5 -71t-70.5 -24q-43 0 -73 14.5t-57.5 33t-59.5 33t-79 14.5q-39 0 -70.5 -12.5t-54 -39t-35 -67.5t-12.5 -99zM842 258l8 -31v-227h139v633v14v254h-139v-254l-8 -14v-375z" />
<glyph unicode="&#xe4;" d="M86 451q0 -109 36 -196t95 -147.5t139 -92t166 -31.5q68 0 127.5 19.5t104.5 52t75.5 76.5t40.5 95v217h-28q0 -59 -20.5 -117.5t-58.5 -104.5t-95.5 -73.5t-130.5 -27.5q-66 0 -121.5 23.5t-94 67.5t-60 105.5t-21.5 135.5q0 78 22.5 139t63.5 103t96 63.5t119 21.5 q74 0 130 -26.5t94 -69.5t57.5 -100.5t19.5 -118.5h18v242q-6 37 -32.5 74.5t-69.5 68.5t-102.5 49.5t-133.5 18.5q-90 0 -170 -33t-139 -93.5t-93 -146.5t-34 -194zM235 1223q0 -39 29 -67t70 -28t67.5 28t26.5 67q0 41 -26.5 65.5t-67.5 24.5t-70 -24.5t-29 -65.5z M661 1223q0 -39 29 -67t70 -28t67.5 28t26.5 67q0 41 -26.5 65.5t-67.5 24.5t-70 -24.5t-29 -65.5zM842 258l8 -31v-227h139v633v14v254h-139v-254l-8 -14v-375z" />
<glyph unicode="&#xe5;" d="M86 451q0 -109 36 -196t95 -147.5t139 -92t166 -31.5q68 0 127.5 19.5t104.5 52t75.5 76.5t40.5 95v217h-28q0 -59 -20.5 -117.5t-58.5 -104.5t-95.5 -73.5t-130.5 -27.5q-66 0 -121.5 23.5t-94 67.5t-60 105.5t-21.5 135.5q0 78 22.5 139t63.5 103t96 63.5t119 21.5 q74 0 130 -26.5t94 -69.5t57.5 -100.5t19.5 -118.5h18v242q-6 37 -32.5 74.5t-69.5 68.5t-102.5 49.5t-133.5 18.5q-90 0 -170 -33t-139 -93.5t-93 -146.5t-34 -194zM344 1300q0 -41 15.5 -76.5t42 -62t64.5 -42t81 -15.5t80.5 15.5t64.5 42t42 62.5t15 76q0 41 -15 77 t-42 62.5t-64.5 41t-80.5 14.5t-81 -14.5t-64.5 -41t-42 -62.5t-15.5 -77zM444 1300q0 49 27.5 78t75.5 29q47 0 74.5 -28.5t27.5 -78.5q0 -49 -27.5 -77.5t-74.5 -28.5t-75 28.5t-28 77.5zM842 258l8 -31v-227h139v633v14v254h-139v-254l-8 -14v-375z" />
<glyph unicode="&#xe6;" horiz-adv-x="1556" d="M86 266q0 -66 25.5 -118t69.5 -88.5t105.5 -56t133.5 -19.5q78 0 148.5 26.5t123.5 84t84 148.5t31 220l-6 74q0 111 -32 183.5t-82 115.5t-111.5 60t-122.5 17q-49 0 -95.5 -10t-87.5 -31.5t-77.5 -52.5t-69.5 -71l76 -117q41 66 97 102.5t138 36.5q51 0 97.5 -15.5 t80 -46t53 -76.5t19.5 -108v-90q0 -72 -17.5 -130t-49 -100t-80 -64.5t-109.5 -22.5q-41 0 -77 10t-61.5 30.5t-41 49.5t-15.5 65q0 29 10.5 55.5t33 48t58.5 34t89 12.5h1046v84q0 76 -24.5 149.5t-72.5 132t-116.5 94.5t-158.5 36q-80 0 -152 -31t-127 -90.5t-88 -146.5 t-33 -199q0 -109 30 -195t83 -146.5t125 -93t158 -32.5q49 0 98 10t92 31.5t80 54.5t63 76l-96 88q-20 -29 -47 -52.5t-58.5 -40t-67.5 -25.5t-73 -9q-59 0 -107 23.5t-82 67.5t-52.5 106.5t-18.5 140.5q0 76 21.5 136t58.5 103t86 66.5t105 23.5q53 0 96 -20.5t73.5 -57 t48 -85t17.5 -103.5v-78l76 107h-995q-86 0 -148.5 -23.5t-101.5 -62.5t-57.5 -90.5t-18.5 -104.5z" />
<glyph unicode="&#xe7;" horiz-adv-x="972" d="M86 455q0 -100 33 -186.5t93 -150t147.5 -99t193.5 -35.5q123 0 213 44t147 111l-92 92q-41 -51 -106.5 -82.5t-149.5 -31.5q-72 0 -132 24.5t-105 69.5t-70 107.5t-25 138.5q0 78 26 138t70 102t102 64.5t124 22.5q78 0 145.5 -30.5t112.5 -83.5l86 114 q-31 31 -69.5 56.5t-83 42t-93.5 26t-100 9.5q-98 0 -183 -32t-147.5 -91.5t-99.5 -145.5t-37 -194zM373 -362q20 -33 67 -55.5t119 -22.5q45 0 84 10t69 30.5t47.5 52.5t17.5 73q0 31 -11.5 59.5t-36 52t-66.5 36.5t-104 13l41 -26v159h-81v-217h16q37 0 60.5 -7t36.5 -17 t17.5 -23.5t4.5 -27.5q0 -41 -27 -59.5t-70 -18.5q-45 0 -77.5 15.5t-49.5 37.5z" />
<glyph unicode="&#xe8;" horiz-adv-x="1067" d="M86 451q0 -109 36 -195t98.5 -146.5t147.5 -93t185 -32.5q113 0 216 42t169 130l-96 88q-45 -59 -120 -93t-161 -34q-70 0 -130 23.5t-104 67.5t-69 106.5t-25 140.5q0 76 23 136t62.5 103t95 66.5t118.5 23.5q66 0 120.5 -23.5t95 -63.5t63.5 -94t23 -118v-45l84 107 h-734v-125h797v51q0 84 -28.5 163t-84 142.5t-136.5 101.5t-185 38q-90 0 -173 -31t-147.5 -90.5t-102.5 -146.5t-38 -199zM319 1362l267 -264l71 59l-215 301z" />
<glyph unicode="&#xe9;" horiz-adv-x="1067" d="M86 451q0 -109 36 -195t98.5 -146.5t147.5 -93t185 -32.5q113 0 216 42t169 130l-96 88q-45 -59 -120 -93t-161 -34q-70 0 -130 23.5t-104 67.5t-69 106.5t-25 140.5q0 76 23 136t62.5 103t95 66.5t118.5 23.5q66 0 120.5 -23.5t95 -63.5t63.5 -94t23 -118v-45l84 107 h-734v-125h797v51q0 84 -28.5 163t-84 142.5t-136.5 101.5t-185 38q-90 0 -173 -31t-147.5 -90.5t-102.5 -146.5t-38 -199zM397 1157l72 -59l266 264l-123 96z" />
<glyph unicode="&#xea;" horiz-adv-x="1067" d="M86 451q0 -109 36 -195t98.5 -146.5t147.5 -93t185 -32.5q113 0 216 42t169 130l-96 88q-45 -59 -120 -93t-161 -34q-70 0 -130 23.5t-104 67.5t-69 106.5t-25 140.5q0 76 23 136t62.5 103t95 66.5t118.5 23.5q66 0 120.5 -23.5t95 -63.5t63.5 -94t23 -118v-45l84 107 h-734v-125h797v51q0 84 -28.5 163t-84 142.5t-136.5 101.5t-185 38q-90 0 -173 -31t-147.5 -90.5t-102.5 -146.5t-38 -199zM243 1186l52 -60l317 207h-156l316 -207l51 60l-197 213h-186z" />
<glyph unicode="&#xeb;" horiz-adv-x="1067" d="M86 451q0 -109 36 -195t98.5 -146.5t147.5 -93t185 -32.5q113 0 216 42t169 130l-96 88q-45 -59 -120 -93t-161 -34q-70 0 -130 23.5t-104 67.5t-69 106.5t-25 140.5q0 76 23 136t62.5 103t95 66.5t118.5 23.5q66 0 120.5 -23.5t95 -63.5t63.5 -94t23 -118v-45l84 107 h-734v-125h797v51q0 84 -28.5 163t-84 142.5t-136.5 101.5t-185 38q-90 0 -173 -31t-147.5 -90.5t-102.5 -146.5t-38 -199zM223 1223q0 -39 29 -67t70 -28t67.5 28t26.5 67q0 41 -26.5 65.5t-67.5 24.5t-70 -24.5t-29 -65.5zM649 1223q0 -39 29 -67t70 -28t67.5 28t26.5 67 q0 41 -26.5 65.5t-67.5 24.5t-70 -24.5t-29 -65.5z" />
<glyph unicode="&#xec;" horiz-adv-x="454" d="M12 1362l267 -264l71 59l-215 301zM154 0h147v901h-147v-901z" />
<glyph unicode="&#xed;" horiz-adv-x="454" d="M90 1157l72 -59l266 264l-123 96zM154 0h147v901h-147v-901z" />
<glyph unicode="&#xee;" horiz-adv-x="454" d="M-64 1186l52 -60l317 207h-156l316 -207l51 60l-197 213h-186zM154 0h147v901h-147v-901z" />
<glyph unicode="&#xef;" horiz-adv-x="454" d="M4 1217q0 -37 27 -63t66 -26q37 0 63.5 26t26.5 63t-27 61.5t-63 24.5q-39 0 -66 -25t-27 -61zM154 0h147v901h-147v-901zM266 1217q0 -37 27 -63t66 -26q37 0 63.5 26t26.5 63t-26.5 61.5t-63.5 24.5q-39 0 -66 -25t-27 -61z" />
<glyph unicode="&#xf0;" horiz-adv-x="1071" d="M86 451q0 -109 34 -195t95 -146.5t145.5 -93t182.5 -32.5q84 0 163.5 26.5t141 88t99.5 162.5t38 251q0 117 -23.5 224.5t-64.5 202.5t-98.5 177t-125 148.5t-142 113.5t-152.5 76l-68 -84q113 -57 209 -139t167 -186.5t111 -227.5t40 -262l57 141q-78 119 -168 170.5 t-199 51.5q-88 0 -167.5 -31t-141 -90.5t-97.5 -146.5t-36 -199zM233 455q0 68 21.5 128t61.5 104t96.5 70.5t126.5 26.5q63 0 118.5 -23.5t95.5 -67.5t62.5 -106.5t22.5 -140.5q0 -76 -21.5 -136t-60.5 -103t-92.5 -66.5t-116.5 -23.5q-68 0 -126.5 26.5t-99 71.5 t-64.5 107.5t-24 132.5zM268 1059l51 -101l599 306l-52 100z" />
<glyph unicode="&#xf1;" horiz-adv-x="1064" d="M154 0h147v633l-8 14v254h-139v-254v-14v-375v-31v-227zM245 1171h103q0 41 19.5 68t60.5 27q31 0 59.5 -14.5t60 -33t68.5 -33t84 -14.5q43 0 77 14.5t57.5 42t35.5 68.5t12 93h-102q0 -47 -23.5 -71t-70.5 -24q-43 0 -73 14.5t-57.5 33t-59.5 33t-79 14.5 q-39 0 -70.5 -12.5t-54 -39t-35 -67.5t-12.5 -99zM260 463h41q0 66 17.5 122t51 97t82 64.5t107.5 23.5q45 0 86 -14.5t72 -44t48 -75.5t17 -112v-524h148v539v18q0 84 -25.5 149.5t-71 111.5t-106.5 70.5t-133 24.5q-68 0 -126 -21.5t-102 -56t-72 -78.5t-34 -91v-203z" />
<glyph unicode="&#xf2;" horiz-adv-x="1091" d="M86 455q0 -100 35 -186.5t97.5 -150t146.5 -99t182 -35.5t182 35.5t145.5 99t96.5 149.5t35 187q0 100 -35 185t-96.5 146.5t-145.5 96.5t-182 35t-183 -35t-146.5 -97.5t-96.5 -147.5t-35 -183zM233 455q0 74 23 134t64.5 104t99 67.5t127.5 23.5t127 -23.5t98 -67.5 t63.5 -104.5t22.5 -133.5q0 -74 -22.5 -136.5t-63.5 -107.5t-98 -69.5t-127 -24.5t-127.5 24.5t-98 69.5t-64.5 107.5t-24 136.5zM331 1362l267 -264l71 59l-215 301z" />
<glyph unicode="&#xf3;" horiz-adv-x="1091" d="M86 455q0 -100 35 -186.5t97.5 -150t146.5 -99t182 -35.5t182 35.5t145.5 99t96.5 149.5t35 187q0 100 -35 185t-96.5 146.5t-145.5 96.5t-182 35t-183 -35t-146.5 -97.5t-96.5 -147.5t-35 -183zM233 455q0 74 23 134t64.5 104t99 67.5t127.5 23.5t127 -23.5t98 -67.5 t63.5 -104.5t22.5 -133.5q0 -74 -22.5 -136.5t-63.5 -107.5t-98 -69.5t-127 -24.5t-127.5 24.5t-98 69.5t-64.5 107.5t-24 136.5zM410 1157l72 -59l266 264l-123 96z" />
<glyph unicode="&#xf4;" horiz-adv-x="1091" d="M86 455q0 -100 35 -186.5t97.5 -150t146.5 -99t182 -35.5t182 35.5t145.5 99t96.5 149.5t35 187q0 100 -35 185t-96.5 146.5t-145.5 96.5t-182 35t-183 -35t-146.5 -97.5t-96.5 -147.5t-35 -183zM233 455q0 74 23 134t64.5 104t99 67.5t127.5 23.5t127 -23.5t98 -67.5 t63.5 -104.5t22.5 -133.5q0 -74 -22.5 -136.5t-63.5 -107.5t-98 -69.5t-127 -24.5t-127.5 24.5t-98 69.5t-64.5 107.5t-24 136.5zM256 1186l52 -60l317 207h-156l316 -207l51 60l-197 213h-186z" />
<glyph unicode="&#xf5;" horiz-adv-x="1091" d="M86 455q0 -100 35 -186.5t97.5 -150t146.5 -99t182 -35.5t182 35.5t145.5 99t96.5 149.5t35 187q0 100 -35 185t-96.5 146.5t-145.5 96.5t-182 35t-183 -35t-146.5 -97.5t-96.5 -147.5t-35 -183zM227 1171h103q0 41 19.5 68t60.5 27q31 0 59.5 -14.5t60 -33t68.5 -33 t84 -14.5q43 0 77 14.5t57.5 42t35.5 68.5t12 93h-102q0 -47 -23.5 -71t-70.5 -24q-43 0 -73 14.5t-57.5 33t-59.5 33t-79 14.5q-39 0 -70.5 -12.5t-54 -39t-35 -67.5t-12.5 -99zM233 455q0 74 23 134t64.5 104t99 67.5t127.5 23.5t127 -23.5t98 -67.5t63.5 -104.5 t22.5 -133.5q0 -74 -22.5 -136.5t-63.5 -107.5t-98 -69.5t-127 -24.5t-127.5 24.5t-98 69.5t-64.5 107.5t-24 136.5z" />
<glyph unicode="&#xf6;" horiz-adv-x="1091" d="M86 455q0 -100 35 -186.5t97.5 -150t146.5 -99t182 -35.5t182 35.5t145.5 99t96.5 149.5t35 187q0 100 -35 185t-96.5 146.5t-145.5 96.5t-182 35t-183 -35t-146.5 -97.5t-96.5 -147.5t-35 -183zM233 455q0 74 23 134t64.5 104t99 67.5t127.5 23.5t127 -23.5t98 -67.5 t63.5 -104.5t22.5 -133.5q0 -74 -22.5 -136.5t-63.5 -107.5t-98 -69.5t-127 -24.5t-127.5 24.5t-98 69.5t-64.5 107.5t-24 136.5zM235 1223q0 -39 29 -67t70 -28t67.5 28t26.5 67q0 41 -26.5 65.5t-67.5 24.5t-70 -24.5t-29 -65.5zM661 1223q0 -39 29 -67t70 -28t67.5 28 t26.5 67q0 41 -26.5 65.5t-67.5 24.5t-70 -24.5t-29 -65.5z" />
<glyph unicode="&#xf7;" horiz-adv-x="1269" d="M205 655h860v133h-860v-133zM537 381q0 -45 26.5 -72.5t71.5 -27.5t71.5 27.5t26.5 72.5q0 43 -26.5 70.5t-71.5 27.5t-71.5 -27.5t-26.5 -70.5zM537 1065q0 -45 26.5 -72.5t71.5 -27.5t71.5 27.5t26.5 72.5q0 43 -26.5 70.5t-71.5 27.5t-71.5 -27.5t-26.5 -70.5z" />
<glyph unicode="&#xf8;" horiz-adv-x="1091" d="M86 70l74 -74l141 141l14 15l512 512l23 22l147 150l-73 73l-140 -139l-24 -25l-504 -505l-20 -21zM86 455q0 -100 35 -186.5t97.5 -150t146.5 -99t182 -35.5t182 35.5t145.5 99t96.5 149.5t35 187q0 100 -35 185t-96.5 146.5t-145.5 96.5t-182 35t-183 -35t-146.5 -97.5 t-96.5 -147.5t-35 -183zM233 455q0 74 23 134t64.5 104t99 67.5t127.5 23.5t127 -23.5t98 -67.5t63.5 -104.5t22.5 -133.5q0 -74 -22.5 -136.5t-63.5 -107.5t-98 -69.5t-127 -24.5t-127.5 24.5t-98 69.5t-64.5 107.5t-24 136.5z" />
<glyph unicode="&#xf9;" horiz-adv-x="1052" d="M135 385q0 -102 24.5 -177t67.5 -124t103.5 -72.5t134.5 -23.5q68 0 122 18.5t95 49t66.5 70.5t37.5 83l-26 59v-268h139v901h-147v-463q0 -68 -17.5 -124t-51.5 -98t-83 -65.5t-113 -23.5q-104 0 -154 70.5t-50 220.5v483h-148v-516zM299 1362l267 -264l71 59l-215 301z " />
<glyph unicode="&#xfa;" horiz-adv-x="1052" d="M135 385q0 -102 24.5 -177t67.5 -124t103.5 -72.5t134.5 -23.5q68 0 122 18.5t95 49t66.5 70.5t37.5 83l-26 59v-268h139v901h-147v-463q0 -68 -17.5 -124t-51.5 -98t-83 -65.5t-113 -23.5q-104 0 -154 70.5t-50 220.5v483h-148v-516zM377 1157l72 -59l266 264l-123 96z " />
<glyph unicode="&#xfb;" horiz-adv-x="1052" d="M135 385q0 -102 24.5 -177t67.5 -124t103.5 -72.5t134.5 -23.5q68 0 122 18.5t95 49t66.5 70.5t37.5 83l-26 59v-268h139v901h-147v-463q0 -68 -17.5 -124t-51.5 -98t-83 -65.5t-113 -23.5q-104 0 -154 70.5t-50 220.5v483h-148v-516zM223 1186l52 -60l317 207h-156 l316 -207l51 60l-197 213h-186z" />
<glyph unicode="&#xfc;" horiz-adv-x="1052" d="M135 385q0 -102 24.5 -177t67.5 -124t103.5 -72.5t134.5 -23.5q68 0 122 18.5t95 49t66.5 70.5t37.5 83l-26 59v-268h139v901h-147v-463q0 -68 -17.5 -124t-51.5 -98t-83 -65.5t-113 -23.5q-104 0 -154 70.5t-50 220.5v483h-148v-516zM202 1223q0 -39 29 -67t70 -28 t67.5 28t26.5 67q0 41 -26.5 65.5t-67.5 24.5t-70 -24.5t-29 -65.5zM628 1223q0 -39 29 -67t70 -28t67.5 28t26.5 67q0 41 -26.5 65.5t-67.5 24.5t-70 -24.5t-29 -65.5z" />
<glyph unicode="&#xfd;" horiz-adv-x="907" d="M29 881l391 -912l74 195l-312 737h-153v-20zM219 -471v-21h143l517 1373v20h-144zM320 1157l72 -59l266 264l-123 96z" />
<glyph unicode="&#xfe;" d="M154 -492h147v719v31v375v14v787h-147v-787v-14v-1125zM272 227q10 -51 41 -95t76 -76.5t104.5 -52t127.5 -19.5q86 0 165.5 31.5t139 92t95.5 147.5t36 196t-34 194.5t-93.5 146t-139 93.5t-169.5 33q-74 0 -133.5 -18.5t-102.5 -49.5t-69.5 -69t-32.5 -74v-242h18 q0 61 19.5 118.5t57.5 100.5t94 69.5t130 26.5q66 0 120 -21.5t95 -63.5t63.5 -103.5t22.5 -138.5q0 -74 -21.5 -135.5t-60.5 -105.5t-94 -67.5t-121 -23.5q-74 0 -131 27.5t-95 73.5t-58.5 104.5t-20.5 117.5h-29v-217z" />
<glyph unicode="&#xff;" horiz-adv-x="907" d="M29 881l391 -912l74 195l-312 737h-153v-20zM145 1223q0 -39 29 -67t70 -28t67.5 28t26.5 67q0 41 -26.5 65.5t-67.5 24.5t-70 -24.5t-29 -65.5zM219 -471v-21h143l517 1373v20h-144zM571 1223q0 -39 29 -67t70 -28t67.5 28t26.5 67q0 41 -26.5 65.5t-67.5 24.5 t-70 -24.5t-29 -65.5z" />
<glyph unicode="&#x152;" horiz-adv-x="1810" d="M100 717q0 -154 50.5 -286t147.5 -227t238.5 -149.5t321.5 -54.5h817v143h-594v553h473v144h-473v450h574v144h-797q-150 0 -286 -44t-241.5 -133.5t-168 -223.5t-62.5 -316zM256 719q0 123 41 228.5t120 181t193.5 118.5t263.5 43h56v-1147h-56q-141 0 -255.5 39 t-195.5 113t-124 181.5t-43 242.5z" />
<glyph unicode="&#x153;" horiz-adv-x="1681" d="M86 451q0 -109 32 -195t87 -146.5t131 -93t166 -32.5q74 0 138.5 23.5t113.5 65.5t80.5 97t44.5 119l-101 166q0 -72 -15 -133.5t-46 -107.5t-78 -71.5t-113 -25.5q-76 0 -130 24.5t-89 69.5t-51 108.5t-16 139.5t19.5 135t56 101t90 63.5t122.5 21.5q66 0 113 -23.5 t78 -66.5t45 -102.5t14 -132.5l115 135q-10 74 -42 134t-81 103t-115.5 67t-150.5 24q-94 0 -171 -33t-132.5 -93.5t-85 -146.5t-29.5 -194zM778 455l39 -160q18 -74 54 -131.5t86.5 -97t111.5 -61t131 -21.5q51 0 101.5 10t96.5 31.5t85 54.5t69 76l-96 88 q-41 -59 -109.5 -93t-146.5 -34q-57 0 -107.5 23.5t-87 67.5t-58 106.5t-21.5 140.5q0 76 16 136t50 103t84 66.5t120 23.5q55 0 102.5 -23.5t80 -63.5t51 -94t18.5 -118v-36l55 98h-637v-125h729v39q0 84 -24.5 165t-74.5 146.5t-125 105.5t-175 40q-137 0 -231.5 -70 t-145.5 -205z" />
<glyph unicode="&#x178;" horiz-adv-x="1138" d="M35 1393l532 -873l27 8l510 865v41h-150l-411 -703h67l-428 703h-147v-41zM256 1651q0 -43 32 -74t79 -31q45 0 75.5 31t30.5 74q0 45 -30.5 73.5t-75.5 28.5q-47 0 -79 -28.5t-32 -73.5zM502 0h151v756h-151v-756zM676 1651q0 -43 32 -74t79 -31q45 0 75.5 31t30.5 74 q0 45 -30.5 73.5t-75.5 28.5q-47 0 -79 -28.5t-32 -73.5z" />
<glyph unicode="&#x2c6;" horiz-adv-x="661" d="M41 1186l52 -60l317 207h-156l316 -207l51 60l-197 213h-186z" />
<glyph unicode="&#x2dc;" horiz-adv-x="718" d="M41 1171h103q0 41 19.5 68t60.5 27q31 0 59.5 -14.5t60 -33t68.5 -33t84 -14.5q43 0 77 14.5t57.5 42t35.5 68.5t12 93h-102q0 -47 -23.5 -71t-70.5 -24q-43 0 -73 14.5t-57.5 33t-59.5 33t-79 14.5q-39 0 -70.5 -12.5t-54 -39t-35 -67.5t-12.5 -99z" />
<glyph unicode="&#x2000;" horiz-adv-x="920" />
<glyph unicode="&#x2001;" horiz-adv-x="1841" />
<glyph unicode="&#x2002;" horiz-adv-x="920" />
<glyph unicode="&#x2003;" horiz-adv-x="1841" />
<glyph unicode="&#x2004;" horiz-adv-x="613" />
<glyph unicode="&#x2005;" horiz-adv-x="460" />
<glyph unicode="&#x2006;" horiz-adv-x="306" />
<glyph unicode="&#x2007;" horiz-adv-x="306" />
<glyph unicode="&#x2008;" horiz-adv-x="230" />
<glyph unicode="&#x2009;" horiz-adv-x="368" />
<glyph unicode="&#x200a;" horiz-adv-x="102" />
<glyph unicode="&#x2010;" horiz-adv-x="786" d="M119 414h549v133h-549v-133z" />
<glyph unicode="&#x2011;" horiz-adv-x="786" d="M119 414h549v133h-549v-133z" />
<glyph unicode="&#x2012;" horiz-adv-x="786" d="M119 414h549v133h-549v-133z" />
<glyph unicode="&#x2013;" horiz-adv-x="1193" d="M119 414h956v133h-956v-133z" />
<glyph unicode="&#x2014;" horiz-adv-x="1603" d="M119 414h1366v133h-1366v-133z" />
<glyph unicode="&#x2018;" horiz-adv-x="448" d="M92 1048q0 -24 8.5 -45t24 -36t37 -23.5t48.5 -8.5q43 0 76 29t33 77q0 25 -11.5 46t-34 33.5t-56.5 16t-77 -7.5l41 -66l205 372h-123l-68 -138q-43 -87 -73 -144.5t-30 -104.5z" />
<glyph unicode="&#x2019;" horiz-adv-x="448" d="M62 962h123l68 138q43 87 73 144.5t30 104.5q0 24 -8.5 45t-24 36t-37 23.5t-48.5 8.5q-43 0 -76 -29t-33 -77q0 -25 11.5 -46t34 -33.5t56.5 -16t77 7.5l-41 66z" />
<glyph unicode="&#x201a;" horiz-adv-x="448" d="M62 -294h123l68 138q43 87 73 144.5t30 104.5q0 24 -8.5 45t-24 36t-37 23.5t-48.5 8.5q-43 0 -76 -29t-33 -77q0 -25 11.5 -46t34 -33.5t56.5 -16t77 7.5l-41 66z" />
<glyph unicode="&#x201c;" horiz-adv-x="817" d="M92 1054q0 -24 8.5 -45t24 -36t37 -23.5t48.5 -8.5q43 0 76 29t33 77q0 25 -11.5 46t-34 33.5t-56.5 16t-77 -7.5l41 -66l205 372h-123l-68 -138q-43 -87 -73 -144.5t-30 -104.5zM461 1054q0 -24 8.5 -45t24 -36t37 -23.5t48.5 -8.5q43 0 76 29t33 77q0 25 -11.5 46 t-34 33.5t-56.5 16t-77 -7.5l41 -66l205 372h-123l-68 -138q-43 -87 -73 -144.5t-30 -104.5z" />
<glyph unicode="&#x201d;" horiz-adv-x="815" d="M62 964h123l68 138q43 87 73 144.5t30 104.5q0 24 -8.5 45t-24 36t-37 23.5t-48.5 8.5q-43 0 -76 -29t-33 -77q0 -25 11.5 -46t34 -33.5t56.5 -16t77 7.5l-41 66zM429 964h123l68 138q43 87 73 144.5t30 104.5q0 24 -8.5 45t-24 36t-37 23.5t-48.5 8.5q-43 0 -76 -29 t-33 -77q0 -25 11.5 -46t34 -33.5t56.5 -16t77 7.5l-41 66z" />
<glyph unicode="&#x201e;" horiz-adv-x="817" d="M62 -294h123l68 138q43 87 73 144.5t30 104.5q0 24 -8.5 45t-24 36t-37 23.5t-48.5 8.5q-43 0 -76 -29t-33 -77q0 -25 11.5 -46t34 -33.5t56.5 -16t77 7.5l-41 66zM431 -294h123l68 138q43 87 73 144.5t30 104.5q0 24 -8.5 45t-24 36t-37 23.5t-48.5 8.5q-43 0 -76 -29 t-33 -77q0 -25 11.5 -46t34 -33.5t56.5 -16t77 7.5l-41 66z" />
<glyph unicode="&#x2022;" horiz-adv-x="581" d="M120 474q0 -67 45 -114.5t125 -47.5q41 0 72.5 12t53 35.5t33.5 52.5t12 62q0 71 -44 120.5t-127 49.5t-126.5 -49.5t-43.5 -120.5z" />
<glyph unicode="&#x2026;" horiz-adv-x="1300" d="M125 88q0 -45 30 -76.5t83 -31.5q27 0 48 8t35.5 23.5t22.5 35t8 41.5q0 47 -29.5 80t-84.5 33t-84 -33t-29 -80zM537 88q0 -45 30 -76.5t83 -31.5q27 0 48 8t35.5 23.5t22.5 35t8 41.5q0 47 -29.5 80t-84.5 33t-84 -33t-29 -80zM948 88q0 -45 30 -76.5t83 -31.5 q27 0 48 8t35.5 23.5t22.5 35t8 41.5q0 47 -29.5 80t-84.5 33t-84 -33t-29 -80z" />
<glyph unicode="&#x202f;" horiz-adv-x="368" />
<glyph unicode="&#x2039;" horiz-adv-x="548" d="M23 451l399 -431v183l-297 315v-135l297 313v185z" />
<glyph unicode="&#x203a;" horiz-adv-x="548" d="M127 20l399 430l-399 431v-183l297 -315v135l-297 -313v-185z" />
<glyph unicode="&#x205f;" horiz-adv-x="460" />
<glyph unicode="&#x20ac;" horiz-adv-x="1050" d="M31 778h821l35 133h-824zM33 522h755l33 133h-755zM170 715q0 -166 31.5 -300t96 -230.5t163 -148.5t233.5 -52q92 0 164 22.5t131 56.5v154q-53 -45 -125.5 -67.5t-150.5 -22.5q-98 0 -171 36t-121 108.5t-72.5 183t-24.5 260.5t29.5 260t82.5 183t127 109t164 36 q61 0 128 -15.5t114 -44.5l35 137q-43 29 -118 47.5t-159 18.5q-131 0 -234.5 -52.5t-175 -148.5t-109.5 -230t-38 -300z" />
<glyph unicode="&#x2122;" horiz-adv-x="1239" d="M37 1319h143v-518h119v518h143v115h-405v-115zM471 801h119l51 387l143 -307h88l136 303l53 -383h117l-86 633h-93l-172 -410l-184 410h-94z" />
<glyph unicode="&#x25fc;" horiz-adv-x="901" d="M0 0v901h901v-901h-901z" />
<glyph unicode="&#xfb03;" horiz-adv-x="1681" d="M68 768h1103v133h-1103v-133zM221 0h148v985q0 80 8 135.5t29.5 91t59.5 52t95 16.5q63 0 106.5 -18.5t72 -59.5t43 -104.5t18.5 -153.5l98 41q0 98 -16.5 178t-54 135.5t-102 85t-163.5 29.5q-92 0 -156.5 -26.5t-105.5 -76.5t-60.5 -122t-19.5 -162v-1026zM801 0h147 v985q0 96 10.5 164t35 111t66.5 62t105 19q121 0 168 -69.5t47 -202.5h148q0 82 -17.5 155.5t-59.5 129t-111.5 88.5t-174.5 33q-72 0 -127 -16.5t-95 -50.5t-65.5 -83t-35.5 -117l-41 -43v-1165zM1380 0h148v901h-148v-901z" />
<glyph unicode="&#xfb04;" horiz-adv-x="1681" d="M68 768h1103v133h-1103v-133zM221 0h148v985q0 80 8 135.5t29.5 91t59.5 52t95 16.5q63 0 108.5 -18.5t75 -55.5t43 -93t13.5 -134l98 6q0 98 -16.5 178t-54 135.5t-102 85t-163.5 29.5q-92 0 -156.5 -26.5t-105.5 -76.5t-60.5 -122t-19.5 -162v-1026zM801 0h147v985 q0 96 10.5 164t35 111t66.5 62t105 19q61 0 102.5 -17t66 -52t35.5 -85t11 -118v-1069h148v1090q0 78 -17.5 147.5t-59.5 122.5t-111.5 84t-174.5 31q-76 0 -134 -18.5t-100 -54.5t-67.5 -88t-38.5 -118l-24 -63v-1133z" />
</font>
</defs>
</svg>
